<?xml version="1.0" encoding="utf-8"?>
<!-- Generator: Adobe Illustrator 16.0.4, SVG Export Plug-In . SVG Version: 6.00 Build 0)  -->
<!DOCTYPE svg PUBLIC "-//W3C//DTD SVG 1.1//EN" "http://www.w3.org/Graphics/SVG/1.1/DTD/svg11.dtd">
<svg version="1.1" id="Layer_1" xmlns="http://www.w3.org/2000/svg" xmlns:xlink="http://www.w3.org/1999/xlink" x="0px" y="0px"
	 width="500px" height="250px" viewBox="0 0 500 250" enable-background="new 0 0 500 250" xml:space="preserve">
<path fill="#FFFFFF" d="M289.8,34.8c-2.6,0-4.8,2.2-4.8,4.8v10.8c-10.6-0.6-20.4,2.6-21,2.8c-1.4,0.4-2.6,1.6-3,3
	c-0.4,1.4-0.2,3,0.6,4.2c0.4,0.8,11.2,16.4,32.601,19.8c-21,40.6-21.2,78.8-21.2,80.6c0,2.601,2.2,4.8,4.8,4.8
	c2.601,0,4.8-2.199,4.8-4.8c0-0.399,0.2-33.2,17-69.4c5.2,16.2,17.4,24.6,18,25c0.801,0.6,1.801,0.8,2.601,0.8c0.6,0,1,0,1.6-0.2
	c1.4-0.4,2.601-1.6,3-3c0.2-0.6,3.4-10.4,2.8-21H338.4c2.6,0,4.8-2.2,4.8-4.8c0-19.8-14.2-27.2-24.601-28.8
	C317,49,309.8,34.8,289.8,34.8z M314.2,68.8c0.8,0,16,0.2,19,14.6h-6.8c-0.2,0-0.2,0-0.4,0c-0.4-1.2-0.8-2.4-1.4-3.4
	c-1.199-2.4-4.199-3.4-6.6-2.2c-2.4,1.2-3.4,4.2-2.2,6.6c2.8,5.8,2.4,13.4,1.4,19c-4.601-5.2-10.4-14.2-10.4-27.2V76
	c0-0.2,0-0.4,0-0.6c0-0.2,0-0.2,0-0.4s0-0.2-0.2-0.4c0-0.2-0.199-0.2-0.199-0.4c0-0.2-0.2-0.2-0.2-0.4c0-0.2-0.2-0.2-0.2-0.4
	c0-0.2-0.2-0.2-0.4-0.4c-0.199-0.2-0.199-0.2-0.399-0.4c-0.2-0.2-0.2-0.2-0.4-0.2c-0.2-0.2-0.2-0.2-0.399-0.4c0,0,0,0-0.2,0
	c0,0-0.2,0-0.2-0.2c-0.2,0-0.4-0.2-0.4-0.2c-0.199,0-0.199,0-0.399-0.2c-0.2,0-0.399,0-0.399-0.2c-0.201,0-0.4,0-0.601,0H302
	c-13,0-22.2-5.8-27.2-10.4c5.601-1,13.4-1.4,19,1.4c2.4,1.2,5.4,0.2,6.601-2.2c1.199-2.4,0.199-5.4-2.2-6.6c-1.2-0.6-2.2-1-3.4-1.4
	c0-0.2,0-0.2,0-0.4v-6.8c14,2.8,14.601,17.2,14.601,19C309.2,66.6,311.4,68.8,314.2,68.8z M183.8,41c-7.4,7-10,19-7.8,35.6
	c0.4,2.4,2.4,4.2,4.8,4.2h8c1,11.6,5.4,21,5.8,21.6c0.6,1.2,1.8,2.2,3.2,2.6c0.4,0,0.8,0.2,1.2,0.2c1,0,2-0.4,3-1
	c0.8-0.6,17-13,20.4-34.4c26,47.2,26.4,90.601,26.4,91.2c0,2.6,2.2,4.8,4.8,4.8c2.601,0,4.801-2.2,4.801-4.8
	c0-2.2-0.4-51.2-31.8-103.2c0.2,0,0.2,0,0.4,0c26.4,0,41.8-20.2,42.6-21c0.801-1.2,1.2-2.6,0.801-4c-0.4-1.4-1.2-2.6-2.601-3.2
	c-0.8-0.4-11.8-5.8-25-5.8l2.8-5.8c0.6-1.4,0.6-3,0-4.4c-0.8-1.4-2-2.4-3.6-2.6c-16.6-2.4-28.6,0.2-35.6,7.8
	c-5,5.2-6.2,11.6-6.4,16.2C195.4,34.8,189,36,183.8,41z M204.2,44.4c1.6,0.4,3.2-0.2,4.4-1.4c1.2-1.2,1.6-2.8,1.4-4.4
	c0,0-1.4-8.2,3.6-13.6c3.8-4,10.8-6,20.4-5.4l-2.6,5.2c-3.6,1-7.4,2.6-10.8,4.8c-2.2,1.4-2.8,4.4-1.4,6.8c1.4,2.2,4.4,2.8,6.8,1.4
	c10.4-7,23.6-4.6,31.2-2.2c-6.601,6-20.4,15.2-39,11.4l0,0c-0.2,0-0.6,0-0.8,0h-0.2c-0.2,0-0.6,0-0.8,0c0,0,0,0-0.2,0
	c-0.2,0-0.4,0.2-0.8,0.2h-0.2c-0.2,0.2-0.6,0.2-0.8,0.4l0,0l0,0c-0.2,0.2-0.4,0.4-0.6,0.6l0,0l0,0c-0.2,0.2-0.4,0.4-0.4,0.6
	c0,0,0,0.2-0.2,0.2c-0.2,0.2-0.2,0.4-0.4,0.8c0,0,0,0,0,0.2s-0.2,0.4-0.2,0.6c0,0,0,0,0,0.2c0,0.2,0,0.6,0,0.8v0.2
	c0,0.2,0,0.4,0,0.8c0,0,0,0,0,0.2l0,0c3.8,18.8-5.4,32.4-11.4,39c-2.4-7.6-4.8-20.8,2.2-31.2c1.4-2.2,0.8-5.2-1.4-6.8
	c-2.2-1.4-5.2-0.8-6.8,1.4c-3.4,5.2-5.2,10.6-5.8,16h-4c-1-10.8,0.8-18.8,5.2-23C195.8,43,204,44.4,204.2,44.4z M230.8,186.8
	c-1-2.399,0.2-5.399,2.6-6.399c10.2-4.2,21-6.4,32-6.4l0,0c11,0,21.8,2.2,32,6.4c2.399,1,3.6,3.8,2.6,6.399c-0.8,1.8-2.6,3-4.4,3
	c-0.6,0-1.199-0.2-1.8-0.399c-9-3.801-18.399-5.601-28.2-5.601l0,0c-9.8,0-19.399,1.8-28.2,5.601C234.8,190.4,232,189.2,230.8,186.8
	z"/>
</svg>
