<?xml version="1.0" encoding="utf-8"?>
<!-- Generator: Adobe Illustrator 16.0.4, SVG Export Plug-In . SVG Version: 6.00 Build 0)  -->
<!DOCTYPE svg PUBLIC "-//W3C//DTD SVG 1.1//EN" "http://www.w3.org/Graphics/SVG/1.1/DTD/svg11.dtd">
<svg version="1.1" id="Layer_1" xmlns="http://www.w3.org/2000/svg" xmlns:xlink="http://www.w3.org/1999/xlink" x="0px" y="0px"
	 width="500px" height="250px" viewBox="0 0 500 250" enable-background="new 0 0 500 250" xml:space="preserve">
<path fill="#FFFFFF" d="M339.6,43L329.2,63.8L339.6,84.6c1.2,2.2,0.2,5-2,6.2c-0.6,0.4-1.399,0.4-2,0.4c-1.6,0-3.199-1-4-2.6
	l-9-18.2l-29.8,20c-2,1.4-5,0.8-6.399-1.2c-1.4-2-0.801-5,1.199-6.4l33.2-22.2l10.8-21.8c1.2-2.2,3.801-3.2,6.2-2
	C339.8,38,340.6,40.6,339.6,43z M162.6,90.6c0.6,0.4,1.4,0.4,2,0.4c1.6,0,3.2-1,4-2.6l9-18.2l29.8,20c2,1.4,5,0.8,6.4-1.2
	c1.4-2,0.8-5-1.2-6.4l-33.2-22l-10.8-21.8c-1.2-2.2-3.8-3.2-6.2-2c-2.2,1.2-3.2,3.8-2,6.2l10.4,20.8l-10.4,20.8
	C159.4,86.6,160.2,89.4,162.6,90.6z M165.8,105c-0.4-1.4-0.2-2.8,0.6-4c0.8-1.2,2.2-1.8,3.6-1.8h39.8h0.2h0.2c0.2,0,0.4,0,0.6,0h0.2
	c0.2,0,0.4,0.2,0.8,0.2h0.2c0.2,0,0.4,0.2,0.6,0.4c0,0,0.2,0,0.2,0.2c0.2,0.2,0.4,0.4,0.6,0.6l0,0c0.2,0.2,0.2,0.4,0.4,0.6
	c0,0,0,0.2,0.2,0.2c0,0,0,0.2,0.2,0.2c7.2,14.4,20.6,23.2,35.8,23.2s28.6-8.6,35.8-23.2c0.8-1.6,2.4-2.6,4-2.6h39.8
	c1.4,0,2.801,0.6,3.601,1.8c0.8,1.2,1.2,2.6,0.6,4c-4.6,14.6-12.8,27.2-23.6,36.8c0,0,0,0-0.2,0.2c-1.2,1-2.6,2.2-4.2,3.4
	c-15.2,11.6-34.6,18.399-56.2,18.399C209.8,163.6,176.8,140.6,165.8,105z M219.4,122.6c5.2,14.2,13.6,23.6,24.8,27.6
	c19.399,6.8,43.2-3,55.399-11.4C310,131,318.2,120.6,323.2,108.2H292.6c-9,16.2-24.8,25.6-42.6,25.6
	C238.6,133.8,228,129.8,219.4,122.6z M176.8,108.2c9,22.2,28,38,52.2,44c-11.4-8.8-19-23.601-22.6-44H176.8z"/>
</svg>
