<?xml version="1.0" encoding="utf-8"?>
<!-- Generator: Adobe Illustrator 16.0.4, SVG Export Plug-In . SVG Version: 6.00 Build 0)  -->
<!DOCTYPE svg PUBLIC "-//W3C//DTD SVG 1.1//EN" "http://www.w3.org/Graphics/SVG/1.1/DTD/svg11.dtd">
<svg version="1.1" id="Layer_1" xmlns="http://www.w3.org/2000/svg" xmlns:xlink="http://www.w3.org/1999/xlink" x="0px" y="0px"
	 width="500px" height="250px" viewBox="0 0 500 250" enable-background="new 0 0 500 250" xml:space="preserve">
<path fill="#FFFFFF" d="M316.355,83.686c0-0.002,0-0.002,0-0.002V57.096c0-0.002,0-0.006,0-0.012v-9.596
	c0-12.29-10.012-22.288-22.323-22.288l0,0c-5.954,0-11.574,2.316-15.82,6.518c-4.214,4.172-6.554,9.696-6.606,15.57v0.132
	c-0.062,3.692-3.102,6.676-6.832,6.676c-3.766,0-6.828-3.042-6.828-6.784h-0.004c-0.135-12.172-10.097-22.034-22.33-22.034l0,0
	c-5.95,0-11.57,2.316-15.816,6.518c-4.266,4.218-6.61,9.82-6.61,15.768V51.7c-4.864-2.958-10.578-4.666-16.684-4.666
	c-1.602,0-2.902,1.3-2.902,2.906v6.938h-20.64c-6.946,0-12.598,5.66-12.598,12.616c0,3.364,1.308,6.536,3.68,8.93
	c2.36,2.386,5.488,3.712,8.816,3.738h3.496c0.004,0,0.004,0,0.004,0c0.012,0,0.02,0,0.028,0c1.832-0.02,3.546,0.678,4.812,1.946
	c0,0.002,0.004,0.002,0.004,0.002c3.368,3.378,7.696,5.48,12.398,6.074V108.3c0,13.194,8.086,24.542,19.586,29.41v39.71
	c0,6.932,5.614,12.568,12.512,12.568c6.91,0,12.528-5.656,12.528-12.612l0.004-37.126h13.9v37.113
	c0,6.945,5.677,12.595,12.644,12.595c6.973,0,12.641-5.649,12.641-12.595v-37.111h13.66v36.998c0,6.945,5.66,12.596,12.617,12.596
	c6.955,0,12.615-5.598,12.664-12.494v-72.629c1.746,2.894,3.86,5.602,6.328,8.052c0.566,0.564,1.309,0.844,2.047,0.844
	c0.746,0,1.496-0.284,2.062-0.856c1.128-1.138,1.128-2.978-0.013-4.11C320.059,101.97,316.355,93.104,316.355,83.686z
	 M232.414,177.376c0,3.75-3.012,6.798-6.714,6.798c-3.758,0-6.7-2.964-6.7-6.756v-37.876c2.168,0.462,4.414,0.708,6.718,0.708h6.7
	L232.414,177.376z M310.546,177.25c0,3.74-3.078,6.786-6.856,6.786c-3.75,0-6.803-3.044-6.803-6.786v-55.674
	c0-1.606-1.301-2.91-2.906-2.91c-1.606,0-2.906,1.304-2.906,2.91v12.863h-13.66v-12.863c0-1.606-1.301-2.91-2.902-2.91
	c-1.605,0-2.906,1.304-2.906,2.91v55.787c0,3.74-3.065,6.783-6.832,6.783c-3.766,0-6.828-3.043-6.828-6.783v-55.787
	c0-1.606-1.299-2.91-2.905-2.91s-2.91,1.304-2.91,2.91v12.857h-26.412c-14.504,0-26.308-11.718-26.308-26.127V90.158
	c4.696-0.646,9.028-2.786,12.418-6.19c1.132-1.136,1.128-2.976-0.008-4.108c-1.136-1.134-2.976-1.13-4.11,0.008
	c-3.016,3.026-7.042,4.692-11.344,4.692l0,0c-4.208,0-8.132-1.616-11.05-4.548c0,0,0,0-0.004,0c0,0,0,0,0-0.004
	c-2.218-2.216-5.128-3.486-8.282-3.632c-0.008-0.002-0.016-0.002-0.02-0.002c-0.016,0-0.036-0.002-0.05-0.002
	c-0.078-0.006-0.156-0.012-0.226-0.012h-3.774c-1.804,0-3.504-0.714-4.79-2.014c-1.286-1.3-1.996-3.022-1.996-4.842
	c0-3.75,3.042-6.804,6.786-6.804h23.542c1.606,0,2.906-1.3,2.906-2.908v-6.776c13.132,1.444,23.386,12.554,23.386,26.006v27.572
	c0,1.608,1.296,2.906,2.902,2.906s2.906-1.298,2.906-2.906V79.018c0-8.914-3.68-16.986-9.606-22.792v-8.658
	c0-4.384,1.734-8.518,4.886-11.638c3.148-3.118,7.316-4.834,11.726-4.834l0,0c9.11,0,16.516,7.388,16.516,16.474h0.004
	c0.136,6.83,5.754,12.344,12.64,12.344c6.914,0,12.543-5.558,12.641-12.424l0,0c0-0.008,0-0.018,0-0.028c0-0.046,0-0.094,0-0.14
	c0.042-4.324,1.777-8.392,4.886-11.472c3.147-3.12,7.315-4.834,11.729-4.834l0,0c9.11,0,16.517,7.39,16.517,16.474v5.808
	c0,0.002,0,0.006,0,0.01V177.25H310.546z"/>
</svg>
