<?xml version="1.0" encoding="utf-8"?>
<!-- Generator: Adobe Illustrator 16.0.4, SVG Export Plug-In . SVG Version: 6.00 Build 0)  -->
<!DOCTYPE svg PUBLIC "-//W3C//DTD SVG 1.1//EN" "http://www.w3.org/Graphics/SVG/1.1/DTD/svg11.dtd">
<svg version="1.1" id="Layer_1" xmlns="http://www.w3.org/2000/svg" xmlns:xlink="http://www.w3.org/1999/xlink" x="0px" y="0px"
	 width="50px" height="50px" viewBox="0 0 50 50" enable-background="new 0 0 50 50" xml:space="preserve">
<g>
	<path fill="#FFFFFF" d="M35.775,12.275C35.68,12.105,35.5,12,35.305,12H16.687c-0.191,0-0.369,0.101-0.466,0.266
		c-0.098,0.164-0.102,0.368-0.01,0.536l7.451,13.64V37.75c0,0.218,0.13,0.414,0.331,0.499c0.068,0.03,0.14,0.044,0.212,0.044
		c0.137,0,0.273-0.053,0.377-0.152l3.237-3.121c0.105-0.103,0.166-0.242,0.166-0.391V25.76l7.785-12.938
		C35.869,12.654,35.873,12.445,35.775,12.275z"/>
</g>
</svg>
