<?xml version="1.0" encoding="utf-8"?>
<!-- Generator: Adobe Illustrator 16.0.4, SVG Export Plug-In . SVG Version: 6.00 Build 0)  -->
<!DOCTYPE svg PUBLIC "-//W3C//DTD SVG 1.1//EN" "http://www.w3.org/Graphics/SVG/1.1/DTD/svg11.dtd">
<svg version="1.1" id="Layer_1" xmlns="http://www.w3.org/2000/svg" xmlns:xlink="http://www.w3.org/1999/xlink" x="0px" y="0px"
	 width="500px" height="250px" viewBox="0 0 500 250" enable-background="new 0 0 500 250" xml:space="preserve">
<path fill="#FFFFFF" d="M268.8,127c9.8,0,17.601-8,17.601-17.6s-8-17.6-17.601-17.6c-9.8,0-17.6,8-17.6,17.6S259.2,127,268.8,127z
	 M268.8,101.8c4.2,0,7.601,3.4,7.601,7.6c0,4.2-3.4,7.6-7.601,7.6s-7.6-3.4-7.6-7.6C261.4,105.2,264.8,101.8,268.8,101.8z
	 M324.2,122c0,2.8-2.2,5-5,5s-5-2.2-5-5V89.2c-35-1.8-51.8-21-60-37.2c-1.601-3.4-3-6.6-4.2-9.8c-1.2,3.2-2.4,6.6-4.2,9.8
	c-8.2,16.2-25.2,35.6-60,37.2V122c0,2.8-2.2,5-5,5c-2.8,0-5-2.2-5-5V15c0-2.8,2.2-5,5-5c2.8,0,5,2.2,5,5v52.8
	C200.6,51.4,201,15.4,201,15c0-2.8,2.2-5,5-5l0,0c2.8,0,5,2.2,5,5c0,2-0.2,41.2-18.6,60.4C221.2,61,226,15,226.2,14.6
	c0.2-2.8,2.8-4.8,5.6-4.6c2.8,0.2,4.8,2.8,4.6,5.6c-0.2,2-3.8,35.2-23.2,56.6c31.4-16.2,32-55,32-57.2v-0.2c0.2-2.6,2.4-4.8,5-4.8
	c2,0,3.8,1.2,4.6,3v0.2c0,0.2,0.2,0.4,0.2,0.8c0,0.2,0,0.2,0,0.4c0,0.2,0,0.4,0,0.6c0,2,0.6,41,32,57.2
	c-19.4-21.4-23-54.8-23.2-56.6c-0.2-2.8,1.8-5.2,4.601-5.6c2.8-0.2,5.199,1.8,5.6,4.6c0,0.6,5.2,46.4,33.6,60.8
	C289.4,56.2,289,17,289,15c0-2.8,2.2-5,5-5s5,2.2,5,5c0,0.4,0.2,36.4,15.2,52.8V15c0-2.8,2.2-5,5-5s5,2.2,5,5V122z M180.8,180H254.4
	l-9-17.8c-0.2-0.4-0.4-1-0.4-1.4l-5.8-35.2l-35.4-17.8c-2.4-1.2-3.4-4.2-2.2-6.8c1.2-2.4,4.2-3.4,6.8-2.2l37.8,18.8
	c1.4,0.8,2.4,2,2.8,3.6l6.2,37l12.2,24.399c0.8,1.601,0.6,3.4-0.2,4.801c-1,1.399-2.601,2.399-4.2,2.399h-82.2c-2.8,0-5-2.2-5-5
	S178,180,180.8,180z M296.8,188.6L265.4,157.2c-1.601-1.601-2-4.4-0.601-6.4L277.4,132c1.399-2.2,4.199-2.8,6.399-1.8l25.2,12.6
	c2.4,1.2,3.4,4.2,2.2,6.8c-1.2,2.4-4.2,3.4-6.8,2.2l-21.2-10.6l-7.8,11.8l27,27h16.8c2.8,0,5,2.2,5,5s-2.2,5-5,5h-18.8
	C299,190,297.8,189.4,296.8,188.6z"/>
</svg>
