<?xml version="1.0" encoding="utf-8"?>
<!-- Generator: Adobe Illustrator 16.0.4, SVG Export Plug-In . SVG Version: 6.00 Build 0)  -->
<!DOCTYPE svg PUBLIC "-//W3C//DTD SVG 1.1//EN" "http://www.w3.org/Graphics/SVG/1.1/DTD/svg11.dtd">
<svg version="1.1" id="Layer_1" xmlns:sketch="http://www.bohemiancoding.com/sketch/ns"
	 xmlns="http://www.w3.org/2000/svg" xmlns:xlink="http://www.w3.org/1999/xlink" x="0px" y="0px" width="500px" height="250px"
	 viewBox="0 0 500 250" enable-background="new 0 0 500 250" xml:space="preserve">
<title>winter-49</title>
<desc>Created with Sketch.</desc>
<g sketch:type="MSPage">
	<g sketch:type="MSLayerGroup">
		<path sketch:type="MSShapeGroup" fill="#FFFFFF" stroke="#FFFFFF" stroke-width="5" stroke-miterlimit="10" d="M276.514,145.02
			h-63.884c-4.077,0-7.399-1.311-9.875-3.895c-4.687-4.887-4.424-12.553-4.41-12.875c-0.002-6.771,7.437-13.858,22.74-21.562
			c8.325-4.191,16.536-7.304,20.016-8.561l-1.975-31.559c-0.24-3.875,2.163-7.435,5.844-8.664l37.35-12.45
			c0.886-0.295,1.8-0.445,2.719-0.445c4.721,0,8.56,3.846,8.56,8.573v58.097c0,10.302-1.193,18.482-3.549,24.313
			C287.837,141.476,282.524,145.02,276.514,145.02L276.514,145.02z M285.038,49.772c-0.406,0-0.813,0.069-1.211,0.2l-37.353,12.453
			c-1.633,0.543-2.7,2.127-2.596,3.846l2.086,33.354c0.066,1.072-0.592,2.055-1.609,2.403
			c-15.948,5.429-41.251,17.377-41.251,26.322c-0.002,0.152-0.179,6.094,3.101,9.494c1.567,1.625,3.667,2.412,6.425,2.412h63.884
			c4.058,0,7.637-2.371,9.12-6.044c2.124-5.263,3.201-12.845,3.201-22.532V53.583C288.835,51.482,287.132,49.772,285.038,49.772
			L285.038,49.772z"/>
		<path sketch:type="MSShapeGroup" fill="#FFFFFF" stroke="#FFFFFF" stroke-width="5" stroke-miterlimit="10" d="M303.119,168.834
			H179.285c-9.192,0-16.67-7.479-16.67-16.67c0-9.193,7.478-16.67,16.67-16.67c1.314,0,2.381,1.066,2.381,2.381
			s-1.067,2.381-2.381,2.381c-6.565,0-11.907,5.342-11.907,11.908c0,6.564,5.342,11.906,11.907,11.906h123.834
			c1.314,0,2.381,1.067,2.381,2.382S304.434,168.834,303.119,168.834"/>
		<path sketch:type="MSShapeGroup" fill="#FFFFFF" stroke="#FFFFFF" stroke-width="5" stroke-miterlimit="10" d="M162.615,45"/>
		<path sketch:type="MSShapeGroup" fill="#FFFFFF" stroke="#FFFFFF" stroke-width="5" stroke-miterlimit="10" d="M248.346,168.834
			c-1.314,0-2.382-1.067-2.382-2.382v-14.288c0-1.314,1.067-2.383,2.382-2.383s2.381,1.068,2.381,2.383v14.288
			C250.728,167.767,249.661,168.834,248.346,168.834"/>
		<path sketch:type="MSShapeGroup" fill="#FFFFFF" stroke="#FFFFFF" stroke-width="5" stroke-miterlimit="10" d="M217.388,168.834
			c-1.314,0-2.381-1.067-2.381-2.382v-14.288c0-1.314,1.067-2.383,2.381-2.383c1.315,0,2.381,1.068,2.381,2.383v14.288
			C219.769,167.767,218.703,168.834,217.388,168.834"/>
		<path sketch:type="MSShapeGroup" fill="#FFFFFF" stroke="#FFFFFF" stroke-width="5" stroke-miterlimit="10" d="M276.923,168.834
			c-1.314,0-2.382-1.067-2.382-2.382v-14.288c0-1.314,1.067-2.383,2.382-2.383s2.382,1.068,2.382,2.383v14.288
			C279.305,167.767,278.237,168.834,276.923,168.834"/>
		<path sketch:type="MSShapeGroup" fill="#FFFFFF" stroke="#FFFFFF" stroke-width="5" stroke-miterlimit="10" d="M244.372,78.207
			l-1.577-4.496l47.629-16.67l1.575,4.496L244.372,78.207"/>
		<path sketch:type="MSShapeGroup" fill="#FFFFFF" stroke="#FFFFFF" stroke-width="5" stroke-miterlimit="10" d="M244.372,94.876
			l-1.577-4.496l47.629-16.67l1.575,4.496L244.372,94.876"/>
	</g>
</g>
</svg>
