<?xml version="1.0" encoding="utf-8"?>
<!-- Generator: Adobe Illustrator 16.0.4, SVG Export Plug-In . SVG Version: 6.00 Build 0)  -->
<!DOCTYPE svg PUBLIC "-//W3C//DTD SVG 1.1//EN" "http://www.w3.org/Graphics/SVG/1.1/DTD/svg11.dtd">
<svg version="1.1" id="Layer_1" xmlns:sketch="http://www.bohemiancoding.com/sketch/ns"
	 xmlns="http://www.w3.org/2000/svg" xmlns:xlink="http://www.w3.org/1999/xlink" x="0px" y="0px" width="500px" height="250px"
	 viewBox="0 0 500 250" enable-background="new 0 0 500 250" xml:space="preserve">
<title>business_money_cash_salary_stack_outline_stroke</title>
<description>Created with Sketch.</description>
<path id="a_1_" display="none" fill="none" d="M159,34.364v100h200v-100H159z M168.091,143.455v9.09h181.818v-9.09H168.091z
	 M177.182,161.637v9.09h163.637v-9.09H177.182z M168.091,43.455v81.818h181.818V43.455H168.091z M260.152,52.545v6.054
	c2.431,0.392,4.418,1.194,5.963,2.409c1.543,1.215,3.016,3.079,4.416,5.591l-6.023,3.367c-1.812-3.295-4.18-4.942-7.104-4.942
	c-1.812,0-3.315,0.535-4.51,1.606c-1.193,1.071-1.791,2.409-1.791,4.015c0,1.462,0.483,2.677,1.451,3.645
	c0.947,0.947,2.862,2.069,5.745,3.367c2.492,1.132,4.552,2.198,6.177,3.197c1.627,0.999,2.854,1.961,3.676,2.888
	c2.328,2.512,3.49,5.549,3.49,9.112c0,3.5-1.05,6.589-3.15,9.266c-2.079,2.656-4.859,4.448-8.34,5.374v6.394h-5.404v-6.208
	c-4.036-0.659-7.114-2.049-9.235-4.17c-2.12-2.121-3.686-5.395-4.694-9.822l6.795-1.421c0.927,3.13,2.059,5.364,3.396,6.703
	c1.4,1.276,3.264,1.915,5.592,1.915c2.264,0,4.158-0.731,5.684-2.193c1.502-1.441,2.254-3.305,2.254-5.59
	c0-2.039-0.628-3.676-1.885-4.911c-0.637-0.597-1.58-1.271-2.825-2.023c-1.246-0.752-2.836-1.57-4.772-2.456
	c-3.994-1.792-6.619-3.439-7.875-4.942c-1.998-2.245-2.996-4.932-2.996-8.062c0-1.482,0.236-2.862,0.709-4.139
	c0.475-1.277,1.159-2.435,2.055-3.475c0.896-1.04,2.002-1.94,3.32-2.703c1.317-0.762,2.811-1.359,4.479-1.792v-6.054H260.152z"/>
<g id="a">
	<g>
		<g>
			<rect x="176.182" y="162.637" fill="#F9F7F7" width="163.637" height="9.09"/>
			<rect x="167.091" y="144.455" fill="#F9F7F7" width="181.818" height="9.09"/>
			<path fill="#F9F7F7" d="M158,35.364v100h200v-100H158z M267.492,103.12c-2.079,2.656-4.859,4.448-8.34,5.374v6.394h-5.404v-6.208
				c-4.036-0.659-7.114-2.049-9.235-4.17c-2.12-2.121-3.686-5.395-4.694-9.822l6.795-1.421c0.927,3.13,2.059,5.364,3.396,6.703
				c1.4,1.276,3.264,1.915,5.592,1.915c2.264,0,4.158-0.731,5.684-2.193c1.502-1.441,2.254-3.305,2.254-5.59
				c0-2.039-0.628-3.676-1.885-4.911c-0.637-0.597-1.58-1.271-2.825-2.023c-1.246-0.752-2.836-1.57-4.772-2.456
				c-3.994-1.792-6.619-3.439-7.875-4.942c-1.998-2.245-2.996-4.932-2.996-8.062c0-1.482,0.236-2.862,0.709-4.139
				c0.475-1.277,1.159-2.435,2.055-3.475c0.896-1.04,2.002-1.94,3.32-2.703c1.317-0.762,2.811-1.359,4.479-1.792v-6.054h5.404v6.054
				c2.431,0.392,4.418,1.194,5.963,2.409c1.543,1.215,3.016,3.079,4.416,5.591l-6.023,3.367c-1.812-3.295-4.18-4.942-7.104-4.942
				c-1.812,0-3.315,0.535-4.51,1.606c-1.193,1.071-1.791,2.409-1.791,4.015c0,1.462,0.483,2.677,1.451,3.645
				c0.947,0.947,2.862,2.069,5.745,3.367c2.492,1.132,4.552,2.198,6.177,3.197c1.627,0.999,2.854,1.961,3.676,2.888
				c2.328,2.512,3.49,5.549,3.49,9.112C270.643,97.354,269.593,100.443,267.492,103.12z"/>
		</g>
	</g>
</g>
<rect id="_x3C_Slice_x3E_" x="157.5" y="34.5" fill="none" width="201" height="138"/>
</svg>
