<?xml version="1.0" encoding="utf-8"?>
<!-- Generator: Adobe Illustrator 16.0.4, SVG Export Plug-In . SVG Version: 6.00 Build 0)  -->
<!DOCTYPE svg PUBLIC "-//W3C//DTD SVG 1.1//EN" "http://www.w3.org/Graphics/SVG/1.1/DTD/svg11.dtd">
<svg version="1.1" id="Layer_1" xmlns="http://www.w3.org/2000/svg" xmlns:xlink="http://www.w3.org/1999/xlink" x="0px" y="0px"
	 width="500px" height="250px" viewBox="0 0 500 250" enable-background="new 0 0 500 250" xml:space="preserve">
<path fill="#FFFFFF" stroke="#FFFFFF" stroke-width="2" stroke-miterlimit="10" d="M250.4,102.8c-7,0-15.2-2-15.2-7.4
	s8.2-7.4,15.2-7.4c7,0,15.2,2,15.2,7.4C265.4,100.8,257.4,102.8,250.4,102.8z M243.2,95.4c1.6,0.4,3.8,1,7.2,1s5.6-0.4,7.2-1
	c-1.6-0.4-3.8-1-7.2-1S244.6,94.8,243.2,95.4z"/>
<path fill="#FFFFFF" stroke="#FFFFFF" stroke-width="2" stroke-miterlimit="10" d="M250,163c-10,0-59.8-0.6-59.8-13
	c0-1.8,1.4-3.2,3.2-3.2c1.6,0,3,1.2,3.2,2.601c2.4,2.399,20.6,7,53.4,7s50.8-4.601,53.4-7c0.199-1.601,1.6-2.601,3.199-2.601
	c1.801,0,3.199,1.4,3.199,3.2C309.8,162.4,260,163,250,163z"/>
<path fill="#FFFFFF" stroke="#FFFFFF" stroke-width="2" stroke-miterlimit="10" d="M193,153.4c-1.8,0-3.2-1.4-3.2-3.2
	s1.4-3.2,3.2-3.2c7,0,16.8-9,27.4-25.2c8.4-13,14.6-26.2,14.6-26.2c0.8-1.6,2.6-2.4,4.2-1.6c1.6,0.8,2.4,2.6,1.6,4.2
	C238.4,103.8,214.8,153.4,193,153.4z"/>
<path fill="#FFFFFF" stroke="#FFFFFF" stroke-width="2" stroke-miterlimit="10" d="M307,153.4c-21.6,0-45.2-49.602-47.8-55.2
	c-0.8-1.6,0-3.6,1.6-4.2c1.601-0.8,3.601,0,4.2,1.6c0,0.2,6.2,13.4,14.6,26.4c10.602,16,20.4,24.8,27.4,24.8c1.8,0,3.2,1.4,3.2,3.2
	S308.8,153.4,307,153.4z"/>
<path fill="#FFFFFF" stroke="#FFFFFF" stroke-width="2" stroke-miterlimit="10" d="M251.6,84L251.6,84c-2,0-3.398-1.6-3.2-3.4
	c0.4-7.4,4.4-14.2,10.6-18.2c3.2-2,7-3.4,11-3.6c1.8-0.2,3.4,1.2,3.4,3c0,1.8-1.2,3.4-3,3.4c-2.801,0.2-5.4,1-7.801,2.6
	c-4.399,2.8-7.399,7.8-7.601,13C254.8,82.6,253.4,84,251.6,84z"/>
<path fill="#FFFFFF" stroke="#FFFFFF" stroke-width="2" stroke-miterlimit="10" d="M242.6,72.2c-1.8,0-3.2-1.4-3.2-3.2
	c0-9-7.4-16.4-16.4-16.4c-2.8,0-5.6,0.8-8,2c-1.6,0.8-3.6,0.4-4.4-1.2c-0.8-1.6-0.4-3.6,1.2-4.4c3.4-1.8,7.2-2.8,11.2-2.8
	c12.6,0,22.8,10.2,22.8,22.8C245.8,70.8,244.4,72.2,242.6,72.2z"/>
<path fill="#FFFFFF" stroke="#FFFFFF" stroke-width="2" stroke-miterlimit="10" d="M256,56.4c-1.8,0-3.2-1.4-3.2-3.2
	c0-6.6,5.4-12,12-12c1.8,0,3.2,1.4,3.2,3.2c0,1.8-1.4,3.2-3.2,3.2c-3,0-5.6,2.4-5.6,5.6C259.2,55,257.6,56.4,256,56.4z"/>
<path fill="#FFFFFF" stroke="#FFFFFF" stroke-width="2" stroke-miterlimit="10" d="M282.2,52.2c-1.8,0-3.2-1.4-3.2-3.2
	c0-3-2.4-5.6-5.6-5.6c-3,0-5.602,2.4-5.602,5.6c0,1.8-1.398,3.2-3.199,3.2S261.4,50.8,261.4,49c0-6.6,5.398-12,12-12
	c6.6,0,12,5.4,12,12C285.4,50.8,284,52.2,282.2,52.2z"/>
<path fill="#FFFFFF" stroke="#FFFFFF" stroke-width="2" stroke-miterlimit="10" d="M295.2,65.2H270.6c-1.8,0-3.199-1.4-3.199-3.2
	s1.399-3.2,3.199-3.2H292v-1.4c0-3-2.4-5.6-5.6-5.6c-2.2,0-4,1.2-5,3c-0.801,1.6-2.801,2.2-4.4,1.4c-1.6-0.8-2.2-2.8-1.4-4.4
	c2-4,6.2-6.6,10.801-6.6c6.601,0,12,5.4,12,12V62C298.4,63.8,297,65.2,295.2,65.2z"/>
</svg>
