<?xml version="1.0" encoding="utf-8"?>
<!-- Generator: Adobe Illustrator 16.0.4, SVG Export Plug-In . SVG Version: 6.00 Build 0)  -->
<!DOCTYPE svg PUBLIC "-//W3C//DTD SVG 1.1//EN" "http://www.w3.org/Graphics/SVG/1.1/DTD/svg11.dtd">
<svg version="1.1" id="Layer_1" xmlns="http://www.w3.org/2000/svg" xmlns:xlink="http://www.w3.org/1999/xlink" x="0px" y="0px"
	 width="500px" height="250px" viewBox="0 0 500 250" enable-background="new 0 0 500 250" xml:space="preserve">
<path fill="#FFFFFF" stroke="#FFFFFF" stroke-width="2" stroke-miterlimit="10" d="M279.4,112.6H276.6V57.23h-3.5v55.37h-2.8
	c-3.292,0-5.952,2.66-5.952,5.952v65.101c0,3.289,2.66,5.949,5.952,5.949h9.101c3.289,0,5.949-2.66,5.949-5.949v-65.101
	C285.35,115.26,282.689,112.6,279.4,112.6z M281.85,183.65c0,1.365-1.084,2.449-2.449,2.449H270.3c-1.366,0-2.452-1.084-2.452-2.449
	V118.55c0-1.366,1.086-2.452,2.452-2.452h9.101c1.365,0,2.449,1.086,2.449,2.452V183.65z"/>
<path fill="#FFFFFF" stroke="#FFFFFF" stroke-width="2" stroke-miterlimit="10" d="M249.824,63.95
	c14.771,0,26.775-12.004,26.775-26.774c0-14.77-12.004-26.776-26.775-26.776c-14.456,0-26.286,11.55-26.738,25.9h-0.036v76.3h-2.45
	c-3.29,0-5.95,2.66-5.95,5.952v65.101c0,3.289,2.66,5.949,5.95,5.949h9.1c3.292,0,5.952-2.66,5.952-5.949v-65.101
	c0-3.292-2.66-5.952-5.952-5.952h-3.148V50.37C231.17,58.49,239.85,63.95,249.824,63.95z M232.15,118.55v65.101
	c0,1.365-1.086,2.449-2.452,2.449H220.6c-1.366,0-2.45-1.084-2.45-2.449V118.55c0-1.366,1.084-2.452,2.45-2.452h9.1
	C231.064,116.1,232.15,117.186,232.15,118.55z M249.824,13.9c12.846,0,23.275,10.43,23.275,23.274
	c0,12.846-10.431,23.274-23.275,23.274c-12.844,0-23.274-10.428-23.274-23.274C226.55,24.33,236.98,13.9,249.824,13.9z"/>
<path fill="#FFFFFF" stroke="#FFFFFF" stroke-width="2" stroke-miterlimit="10" d="M249.756,56.81c10.85,0,19.67-8.82,19.67-19.67
	s-8.82-19.67-19.67-19.67c-10.852,0-19.672,8.82-19.672,19.67C230.084,47.956,238.904,56.81,249.756,56.81z M249.756,20.934
	c8.924,0,16.17,7.246,16.17,16.17c0,8.926-7.246,16.17-16.17,16.17c-8.926,0-16.172-7.246-16.172-16.17
	S240.83,20.934,249.756,20.934z"/>
</svg>
