<?xml version="1.0" encoding="utf-8"?>
<!-- Generator: Adobe Illustrator 16.0.4, SVG Export Plug-In . SVG Version: 6.00 Build 0)  -->
<!DOCTYPE svg PUBLIC "-//W3C//DTD SVG 1.1//EN" "http://www.w3.org/Graphics/SVG/1.1/DTD/svg11.dtd">
<svg version="1.1" id="Layer_1" xmlns="http://www.w3.org/2000/svg" xmlns:xlink="http://www.w3.org/1999/xlink" x="0px" y="0px"
	 width="500px" height="250px" viewBox="0 0 500 250" enable-background="new 0 0 500 250" xml:space="preserve">
<path fill="#FFFFFF" d="M284.6,100c0,9.4,7.601,17,17,17c9.4,0,17-7.6,17-17s-7.6-17-17-17C292.2,83,284.6,90.6,284.6,100z M309,100
	c0,4-3.2,7.2-7.2,7.2s-7.2-3.2-7.2-7.2s3.2-7.2,7.2-7.2S309,96,309,100z M248.2,79.2c1,2.4-0.2,5.4-2.6,6.4
	c-7.2,3-13.6,7.2-19.2,12.8s-9.8,12-12.8,19.2c-3,7.2-4.4,14.8-4.4,22.6c0,2.6-2.2,4.8-4.8,4.8l0,0c-2.6,0-4.8-2.2-4.8-4.8
	c0-9.2,1.8-18,5.2-26.4c3.4-8.4,8.4-15.8,15-22.2c6.4-6.4,14-11.4,22.2-15C244.4,75.4,247.2,76.6,248.2,79.2z M169.8,134.4
	c-4.4-10.8-6.8-22.4-6.8-34.4s2.2-23.6,6.8-34.4c4.6-11,11.2-20.8,19.6-29.2s18.2-15,29.2-19.6c11-4.6,22.6-6.8,34.4-6.8h36.4
	C315.6,10,336.8,31.2,336.8,57.4c0,1.2-0.6,2.6-1.399,3.4c-4,4-8.2,6-12.601,6c-4.399,0-8.6-2-12.6-6c-4.2-4.2-7.2-4.2-11.4,0
	c-8,8-17.2,8-25.2,0c-2-2-4-3.2-5.6-3.2s-3.6,1-5.6,3.2c-8,8-17.2,8-25.2,0c-1-1-1.4-2.2-1.4-3.4c0-6.8-2.6-13.2-7.4-18
	c-1.8-1.8-1.8-5,0-6.8c2-2,5-2,6.8,0c6.2,6.2,9.8,14.2,10.2,22.8c3.6,3,6.2,2.4,10-1.2c8-8,17.199-8,25.199,0
	c4.2,4.2,7.2,4.2,11.4,0c4-4,8.2-6,12.6-6c4.4,0,8.601,2,12.601,6c3.6,3.6,6.399,4.2,9.8,1.4C326,35.8,309.4,20,289.4,20H253
	c-10.6,0-21,2-30.8,6c-9.8,4-18.6,10-26,17.4c-7.6,7.6-13.4,16.2-17.4,26c-4,9.8-6,20-6,30.8c0,10.6,2,21,6,30.8s10,18.6,17.4,26
	c7.6,7.6,16.2,13.4,26,17.4c9.8,4,20,6,30.8,6h10.2L282.6,161l-14.8-14.8c-1.399-1.4-1.8-3.8-1-5.601l8.601-17.2H252.8
	c-2.6,0-4.8-2.2-4.8-4.8s2.2-4.8,4.8-4.8h30.4c1.6,0,3.2,0.8,4.2,2.4c0.8,1.4,1,3.2,0.199,4.8L277,142.2l15.8,15.8c2,1.8,2,5,0,6.8
	l-16,16h21.8l9.2-18.399L292,146.6c-2-1.8-2-5,0-6.8l12.2-12.2c1.399-1.399,3.8-1.8,5.6-1l24.4,12.2c2.399,1.2,3.399,4.2,2.2,6.601
	c-1.2,2.399-4.2,3.399-6.601,2.199L308.6,137l-6.199,6.2l14.8,14.8c1.399,1.4,1.8,3.8,1,5.6l-8.601,17.2H332c2.6,0,4.8,2.2,4.8,4.8
	c0,2.601-2,4.4-4.8,4.4h-30.4l0,0l0,0H253c-12,0-23.6-2.4-34.4-6.8c-11-4.601-20.8-11.2-29.2-19.601
	C181,155.2,174.4,145.4,169.8,134.4z"/>
</svg>
