<?xml version="1.0" encoding="utf-8"?>
<!-- Generator: Adobe Illustrator 16.0.4, SVG Export Plug-In . SVG Version: 6.00 Build 0)  -->
<!DOCTYPE svg PUBLIC "-//W3C//DTD SVG 1.1//EN" "http://www.w3.org/Graphics/SVG/1.1/DTD/svg11.dtd">
<svg version="1.1" id="Layer_1" xmlns="http://www.w3.org/2000/svg" xmlns:xlink="http://www.w3.org/1999/xlink" x="0px" y="0px"
	 width="500px" height="250px" viewBox="0 0 500 250" enable-background="new 0 0 500 250" xml:space="preserve">
<path fill="none" stroke="#FFFFFF" stroke-width="9" stroke-linecap="round" stroke-linejoin="round" stroke-miterlimit="10" d="
	M277.174,57.524l-0.578,0.564c-7.474,9.612-25.498,9.99-34.646,0l-0.578-0.564c-4.572-4.46-10.916-19.91-9.402-21.31
	c2.798-2.868,13.296,3.054,18.94,7.568l-0.02-0.318c-0.46-7.314,6.027-25.342,8.392-25.368c5.2-0.326,10.126,16.56,10.655,23.974
	c5.832-4.128,14.183-8.37,16.637-5.856C288.09,37.612,281.746,53.062,277.174,57.524z M287.214,98.988
	c0,30.058-17.481,82.92-26.698,82.92c-5.203,0-12.466-15.79-17.806-34.948h13.442H242.71c-4.118-14.774-7.094-31.548-7.094-44.636
	c0-30.058,15.686-35.642,24.901-35.642C269.732,66.684,287.214,68.932,287.214,98.988z M241.776,128.479h14.376H241.776z
	 M256.152,109.994h-19.254H256.152z"/>
</svg>
