<?xml version="1.0" encoding="utf-8"?>
<!-- Generator: Adobe Illustrator 16.0.4, SVG Export Plug-In . SVG Version: 6.00 Build 0)  -->
<!DOCTYPE svg PUBLIC "-//W3C//DTD SVG 1.1//EN" "http://www.w3.org/Graphics/SVG/1.1/DTD/svg11.dtd">
<svg version="1.1" id="Layer_1" xmlns="http://www.w3.org/2000/svg" xmlns:xlink="http://www.w3.org/1999/xlink" x="0px" y="0px"
	 width="500px" height="250px" viewBox="0 0 500 250" enable-background="new 0 0 500 250" xml:space="preserve">
<path fill="#FFFFFF" d="M265,147.2c0,2.6-2,4.6-4.6,4.6H237.6c-2.6,0-4.6-2-4.6-4.6c0-2.601,2-4.601,4.6-4.601H260.4
	C263,142.6,265,144.6,265,147.2z M316.2,141.4c0,12-9.8,21.6-21.601,21.6c-12,0-21.601-9.8-21.601-21.6
	c0-12,9.8-21.602,21.601-21.602C306.6,119.8,316.2,129.6,316.2,141.4z M307.2,141.4c0-7-5.601-12.602-12.601-12.602
	S282,134.4,282,141.4s5.6,12.6,12.6,12.6C301.4,154,307.2,148.4,307.2,141.4z M225,141.4c0,12-9.8,21.6-21.6,21.6
	c-12,0-21.602-9.8-21.602-21.6c0-12,9.801-21.602,21.602-21.602C215.4,119.8,225,129.6,225,141.4z M216,141.4
	c0-7-5.6-12.602-12.6-12.602S190.8,134.4,190.8,141.4S196.4,154,203.4,154S216,148.4,216,141.4z M203.4,135.8
	c-1.602,0-3,0.601-4,1.601s-1.602,2.6-1.602,4c0,1.6,0.602,3,1.602,4s2.6,1.6,4,1.6c1.6,0,3-0.6,4-1.6s1.6-2.602,1.6-4
	c0-1.602-0.6-3-1.6-4S205,135.8,203.4,135.8z M294.6,135.8c-1.6,0-3,0.601-4,1.601s-1.6,2.6-1.6,4c0,1.6,0.6,3,1.6,4
	s2.602,1.6,4,1.6c1.602,0,3-0.6,4-1.6s1.602-2.602,1.602-4c0-1.602-0.602-3-1.602-4S296,135.8,294.6,135.8z M326.2,115.4
	c-0.4-0.6-1.2-0.8-1.8-1.2l-51.2-17c-1.601-0.6-3.4-0.2-4.601,1.2l-10,10h-23.801L228,94.8h26.8c2.601,0,4.601-2,4.601-4.6
	c0-2.6-2-4.6-4.601-4.6h-34.2c0,0,0,0-0.199,0s-0.399,0-0.801,0H219.4c-0.4,0-0.602,0.2-1,0.4l-56.8,28.6c-1.6,0.8-2.6,2.4-2.6,4v17
	c0,1.2,0.4,2.4,1.4,3.2l5.6,5.601c0.8,0.801,2,1.399,3.2,1.399c1.2,0,2.4-0.399,3.2-1.399c1.8-1.801,1.8-4.601,0-6.399l-4.4-4.399
	v-12.4L218.4,96l9.398,18.8c0.801,1.6,2.4,2.6,4,2.6h28.4c1.199,0,2.398-0.4,3.199-1.4l9.399-9.4l47.601,15.8l9.199,9.2v7.601
	L325.2,143.6c-1.8,1.801-1.8,4.602,0,6.4c0.8,0.8,2,1.4,3.2,1.4c1.199,0,2.398-0.4,3.199-1.4l5.601-5.6c0.8-0.801,1.398-2,1.398-3.2
	v-11.4c0-1.2-0.398-2.399-1.398-3.2L326.2,115.4z M175,94.8c2.6,0,4.6-2,4.6-4.6c0-2.6-2-4.6-4.6-4.6h-11.4c-2.6,0-4.6,2-4.6,4.6
	c0,2.6,2,4.6,4.6,4.6H175z M220.6,72c2.602,0,4.602-2,4.602-4.6s-2-4.6-4.602-4.6h-34.2c-2.6,0-4.6,2-4.6,4.6s2,4.6,4.6,4.6H220.6z"
	/>
</svg>
