<?xml version="1.0" encoding="utf-8"?>
<!-- Generator: Adobe Illustrator 16.0.4, SVG Export Plug-In . SVG Version: 6.00 Build 0)  -->
<!DOCTYPE svg PUBLIC "-//W3C//DTD SVG 1.1//EN" "http://www.w3.org/Graphics/SVG/1.1/DTD/svg11.dtd">
<svg version="1.1" id="Layer_1" xmlns="http://www.w3.org/2000/svg" xmlns:xlink="http://www.w3.org/1999/xlink" x="0px" y="0px"
	 width="500px" height="250px" viewBox="0 0 500 250" enable-background="new 0 0 500 250" xml:space="preserve">
<g>
	<path fill="#FFFFFF" d="M254,67.6c-1-1-2.4-1.8-3.8-1.8c-1.4,0-3,0.8-3.8,1.8L169,168.2c-1,1.399-1.2,3.2-0.6,5
		c0.8,1.6,2.4,2.6,4.2,2.6h154.6l0,0c2.6,0,4.8-2.2,4.8-4.8c0-1.2-0.6-2.4-1.2-3.2L254,67.6z M182.6,166.4l67.6-88.2l67.6,88
		L182.6,166.4L182.6,166.4z M297.6,69.2c12.4,0,22.4-10,22.4-22.4c0-12.4-10-22.6-22.4-22.6c-12.399,0-22.399,10-22.399,22.4
		S285.2,69.2,297.6,69.2z M297.6,33.8c7.2,0,13,5.8,13,13c0,7.2-5.8,13-13,13c-7.199,0-13-5.8-13-13
		C284.6,39.6,290.2,33.8,297.6,33.8z M214.6,48.8l-26.2,34.8h26.2c2.6,0,4.8,2.2,4.8,4.8s-2.2,4.8-4.8,4.8h-36c-1.8,0-3.4-1-4.2-2.6
		c-0.8-1.6-0.6-3.4,0.6-5l36-47.4c1-1,2.4-1.8,3.8-1.8l0,0c1.4,0,3,0.8,3.8,1.8l17.6,23.6c1.6,2,1,5.2-1,6.6c-2,1.6-5.2,1-6.6-1
		L214.6,48.8z"/>
</g>
</svg>
