<?xml version="1.0" encoding="utf-8"?>
<!-- Generator: Adobe Illustrator 16.0.4, SVG Export Plug-In . SVG Version: 6.00 Build 0)  -->
<!DOCTYPE svg PUBLIC "-//W3C//DTD SVG 1.1//EN" "http://www.w3.org/Graphics/SVG/1.1/DTD/svg11.dtd">
<svg version="1.1" id="Layer_1" xmlns="http://www.w3.org/2000/svg" xmlns:xlink="http://www.w3.org/1999/xlink" x="0px" y="0px"
	 width="500px" height="250px" viewBox="0 0 500 250" enable-background="new 0 0 500 250" xml:space="preserve">
<path fill="#FFFFFF" d="M311.25,217.5c-1.65,0-3.262-0.662-4.426-1.838c-1.162-1.15-1.824-2.764-1.824-4.412
	c0-1.65,0.662-3.262,1.838-4.426c1.15-1.162,2.762-1.824,4.412-1.824s3.25,0.662,4.426,1.824c1.162,1.174,1.824,2.775,1.824,4.426
	c0,1.648-0.662,3.25-1.824,4.412C314.5,216.838,312.9,217.5,311.25,217.5z M373.75,216.25H330c-2.762,0-5-2.238-5-5s2.238-5,5-5
	h31.678l-15-15H213.322l-15,15H292.5c2.762,0,5,2.238,5,5s-2.238,5-5,5H186.25c-2.022,0-3.846-1.218-4.618-3.088
	c-0.774-1.868-0.346-4.02,1.084-5.448l23.536-23.536V98.75c0-2.762,2.238-5,5-5h137.5c2.762,0,5,2.238,5,5v85.43l23.538,23.536
	c1.428,1.431,1.856,3.58,1.082,5.448C377.596,215.032,375.773,216.25,373.75,216.25z M216.25,181.25h127.5v-77.5h-127.5V181.25z"/>
</svg>
