<?xml version="1.0" encoding="utf-8"?>
<!-- Generator: Adobe Illustrator 16.0.4, SVG Export Plug-In . SVG Version: 6.00 Build 0)  -->
<!DOCTYPE svg PUBLIC "-//W3C//DTD SVG 1.1//EN" "http://www.w3.org/Graphics/SVG/1.1/DTD/svg11.dtd">
<svg version="1.1" id="Layer_1" xmlns="http://www.w3.org/2000/svg" xmlns:xlink="http://www.w3.org/1999/xlink" x="0px" y="0px"
	 width="500px" height="250px" viewBox="0 0 500 250" enable-background="new 0 0 500 250" xml:space="preserve">
<path fill="#FFFFFF" d="M216.4,30c22.2,0,28-15.8,28.2-16.4c0.8-2.2,2.8-3.6,5-3.6l0,0c2.2,0,4.4,1.4,5,3.6
	c0.2,0.6,6,16.4,28.2,16.4c3,0,5.4,2.4,5.4,5.4s-2.4,5.4-5.4,5.4c-18,0-28-8-33.4-14.8c-5.2,6.8-15.4,14.8-33.4,14.8
	c-3,0-5.4-2.4-5.4-5.4C211.2,32.4,213.6,30,216.4,30z M184.4,148.6v36c0,3,2.4,5.4,5.4,5.4s5.4-2.4,5.4-5.4v-36
	c0-3-2.4-5.399-5.4-5.399S184.4,145.8,184.4,148.6z M304.4,148.6v36c0,3,2.399,5.4,5.399,5.4s5.4-2.4,5.4-5.4v-36
	c0-3-2.4-5.399-5.4-5.399S304.4,145.8,304.4,148.6z M269.8,190c3,0,5.4-2.4,5.4-5.4V146.4c2.6,0.6,5.2,1,8,1
	c3,0,5.399-2.4,5.399-5.4s-2.399-5.4-5.399-5.4c-16.8,0-28.8-17.399-28.8-17.6c-1-1.4-2.601-2.4-4.4-2.4l0,0c-1.8,0-3.4,0.8-4.4,2.4
	c-0.2,0.2-12,17.6-29,17.6c-3,0-5.4,2.4-5.4,5.4s2.4,5.4,5.4,5.4c2.8,0,5.4-0.4,8-1V184.6c0,3,2.4,5.4,5.4,5.4s5.4-2.4,5.4-5.4
	V142.4c6.4-3.601,11.4-8.2,14.6-11.801c3.2,3.601,8.2,8.2,14.6,11.801V184.8C264.4,187.6,266.8,190,269.8,190z M171.2,128.6
	c0-3,2.4-5.399,5.4-5.399c20,0,26.6-12.6,28-15.6V93.4c-2.4,0.4-5.2,0.6-8,0.6c-3,0-5.4-2.4-5.4-5.4s2.4-5.4,5.4-5.4
	c20,0,26.6-12.6,28-15.6V55.2c0-3,2.4-5.4,5.4-5.4s5.4,2.4,5.4,5.4v1.4h29.4v-1.4c0-3,2.4-5.4,5.4-5.4s5.399,2.4,5.399,5.4v12.4
	c1.4,3.2,8.2,15.6,28,15.6c3,0,5.4,2.4,5.4,5.4s-2.6,5.4-5.6,5.4c-2.801,0-5.601-0.2-8-0.6v14.2c1.399,3.2,8.199,15.6,28,15.6
	c3,0,5.399,2.399,5.399,5.399S326.4,134,323.4,134c-30.2,0-38-22.6-38.4-23.6v-0.2c0-0.2,0-0.4-0.2-0.6c0-0.2,0-0.4,0-0.6v-0.2v-1.4
	h-69.6v1.4v0.2c0,0.2,0,0.4,0,0.6c0,0.2,0,0.4-0.2,0.6v0.2c-0.4,1-8.4,23.6-38.6,23.6C173.6,134,171.2,131.6,171.2,128.6z
	 M215.2,90.4v6.2H284.6v-6.2c-15-6.4-19.399-19.4-19.8-20v-0.2c0-0.2,0-0.4-0.2-0.6c0-0.2,0-0.4,0-0.6v-0.2v-1.4H235.2v1.4
	c0,0.2,0,0.2,0,0.2c0,0.2,0,0.4,0,0.6c0,0.2,0,0.4-0.2,0.6v0.2C234.6,71,230.2,84,215.2,90.4z"/>
</svg>
