<?xml version="1.0" encoding="utf-8"?>
<!-- Generator: Adobe Illustrator 16.0.4, SVG Export Plug-In . SVG Version: 6.00 Build 0)  -->
<!DOCTYPE svg PUBLIC "-//W3C//DTD SVG 1.1//EN" "http://www.w3.org/Graphics/SVG/1.1/DTD/svg11.dtd">
<svg version="1.1" id="Layer_1" xmlns="http://www.w3.org/2000/svg" xmlns:xlink="http://www.w3.org/1999/xlink" x="0px" y="0px"
	 width="500px" height="250px" viewBox="0 0 500 250" enable-background="new 0 0 500 250" xml:space="preserve">
<path fill="#FFFFFF" d="M324,106.8L324,106.8h-22.4c-14.399-3-25.8-8.6-35-15.4c0.601-0.8,1-1.8,1-2.8c0-2.6-2-4.6-4.6-4.6h-5.4
	c-1.199-1-2.199-2.2-3.199-3.2c1.199-0.8,1.8-2.2,1.8-3.6c0-2.6-2-4.6-4.601-4.6h-4.8c-0.8-1-1.6-1.8-2.4-2.8c1.6-0.8,2.6-2.2,2.6-4
	c0-2.6-2-4.6-4.6-4.6h-4.8c-7.6-9.6-13.8-17-22-17H176c-2.6,0-4.6,2-4.6,4.6c0,10.8-2.8,23.6-5.6,36c-2.8,12.6-5.8,25.8-5.8,37.6
	c0,0.2,0,0.4,0,0.6v22.4c0,1.199,0.4,2.399,1.4,3.199c2.2,2.2,11,7,48.8,7h91.2c0.399,0,1,0,1.399-0.199L337,144
	c2.4-0.8,3.6-3.4,2.8-5.8c-0.8-2.4-3.399-3.601-5.8-2.8L300.6,146.6H210.2c-26.8,0-37.4-2.6-41-4V129.4
	c5.6,1.8,14.8,3.399,29.6,3.399c0.2,0,0.2,0,0.4,0h102l0,0l0,0c28.2,0,35.8-5.399,37.399-7c0.801-0.8,1.4-2,1.4-3.2
	c0-4.2-1.6-8.2-4.6-11.2S328.4,106.8,324,106.8z M198.8,124c-0.2,0-0.2,0-0.4,0c-17.2,0-25.6-2.4-29.2-3.8c0.4-10.2,3-22,5.6-33.4
	c2.4-11.2,5-22.8,5.6-33.4h35.4c4.2,0,9.6,7,15.8,15c12,15.4,30.2,38.6,65,46.8v8.8H198.8z M305.8,123.8v-8H324l0,0
	c1.8,0,3.6,0.8,4.8,2c0.601,0.6,1.2,1.6,1.601,2.4C327.4,121.6,320.2,123.6,305.8,123.8z M198.8,67c-8.8,0-16,7.2-16,16
	s7.2,16,16,16c8.8,0,16-7.2,16-16S207.6,67,198.8,67z M198.8,89.8c-3.8,0-6.8-3-6.8-6.8s3-6.8,6.8-6.8c3.8,0,6.8,3,6.8,6.8
	C205.6,86.6,202.6,89.8,198.8,89.8z"/>
</svg>
