<?xml version="1.0" encoding="utf-8"?>
<!-- Generator: Adobe Illustrator 16.0.4, SVG Export Plug-In . SVG Version: 6.00 Build 0)  -->
<!DOCTYPE svg PUBLIC "-//W3C//DTD SVG 1.1//EN" "http://www.w3.org/Graphics/SVG/1.1/DTD/svg11.dtd">
<svg version="1.1" id="Layer_1" xmlns="http://www.w3.org/2000/svg" xmlns:xlink="http://www.w3.org/1999/xlink" x="0px" y="0px"
	 width="500px" height="250px" viewBox="0 0 500 250" enable-background="new 0 0 500 250" xml:space="preserve">
<path fill="#FFFFFF" d="M221.8,164.2L217,178c-1,2.4,0.4,5.2,2.8,6.2c0.6,0.2,1.2,0.2,1.6,0.2c1.8,0,3.8-1.4,4.6-3.2l4.8-13.8
	c6.2,1.6,12.6,2.6,19.2,2.6c6.6,0,13-1,19.2-2.6l4.8,13.8c0.8,1.8,2.6,3.2,4.6,3.2c0.601,0,1.2,0,1.601-0.2
	c2.399-1,3.8-3.601,2.8-6.2l-5-13.8c8-3.601,15.4-8.4,21.8-14.8c27.601-27.601,27.601-72.4,0-100C286.6,36,268.6,28.6,250,28.6
	c-18.6,0-36.8,7.4-50,20.6c-27.6,27.6-27.6,72.4,0,100C206.4,155.8,213.6,160.8,221.8,164.2z M250,160.4c-5.4,0-10.8-0.801-16-2
	l16-44.601l16,44.601C260.8,159.8,255.4,160.4,250,160.4z M206.8,56.2c11.4-11.4,26.8-17.8,43.2-17.8c16.4,0,31.8,6.4,43.2,17.8
	c23.8,23.8,23.8,62.6,0,86.399c-5.2,5.2-11.4,9.601-18.2,12.601l-20.6-57.4c0,0,0-0.2-0.2-0.2c0-0.2-0.2-0.4-0.2-0.4
	c0-0.2-0.2-0.2-0.2-0.4c0-0.2-0.2-0.2-0.2-0.4c-0.199-0.2-0.199-0.2-0.399-0.4s-0.2-0.2-0.4-0.4c-0.2-0.2-0.2-0.2-0.399-0.4
	c-0.2,0-0.2-0.2-0.4-0.2s-0.4-0.2-0.4-0.2s-0.199,0-0.199-0.2h-0.2c-0.2,0-0.4,0-0.601-0.2c-0.2,0-0.399,0-0.399,0
	c-0.2,0-0.4,0-0.6,0c-0.2,0-0.4,0-0.6,0s-0.4,0-0.4,0c-0.2,0-0.4,0-0.6,0.2h-0.2c0,0-0.2,0-0.2,0.2c-0.2,0-0.4,0.2-0.4,0.2
	c-0.2,0-0.2,0.2-0.4,0.2c-0.2,0-0.2,0.2-0.4,0.4c-0.2,0.2-0.2,0.2-0.4,0.4s-0.2,0.2-0.4,0.4c-0.2,0.2,0.4,0.2,0.4,0.4
	c0,0.2-0.2,0.2-0.2,0.4c0,0.2-0.2,0.4-0.2,0.4s0,0.2-0.2,0.2L225,155.2c-6.8-3-12.8-7.2-18.2-12.601
	C182.8,118.8,182.8,80,206.8,56.2z M250,15.6c1.6,0,3.2,0.6,4.4,1.6c1.199,1.2,1.6,2.6,1.6,4.4c0,1.6-0.6,3.2-1.6,4.4
	c-1.2,1.2-2.601,1.6-4.4,1.6c-1.6,0-3.2-0.6-4.4-1.6c-1.2-1.2-1.6-2.6-1.6-4.4c0-1.6,0.6-3.2,1.6-4.4C246.8,16,248.4,15.6,250,15.6z
	 M199,40c1.2,1.2,1.6,2.6,1.6,4.4c0,1.6-0.6,3.2-1.6,4.4c-1.2,1.2-2.6,1.6-4.4,1.6c-1.6,0-3.2-0.6-4.4-1.6c-1.2-1.2-1.6-2.6-1.6-4.4
	c0-1.6,0.6-3.2,1.6-4.4c1.2-1.2,2.6-1.6,4.4-1.6C196.4,38.4,197.8,39,199,40z M305,160.4c-1.6,0-3.2-0.601-4.4-1.601
	c-1.199-1-1.6-2.6-1.6-4.399c0-1.601,0.6-3.2,1.6-4.4c1.2-1.2,2.601-1.6,4.4-1.6c1.6,0,3.2,0.6,4.4,1.6c1.199,1,1.6,2.6,1.6,4.4
	c0,1.6-0.6,3.199-1.6,4.399C308.2,160,306.6,160.4,305,160.4z M167.8,103.6c-1.2-1.2-1.6-2.6-1.6-4.4c0-1.8,0.6-3.2,1.6-4.4
	c1-1.2,2.6-1.6,4.4-1.6c1.6,0,3.2,0.6,4.4,1.6c1.2,1.2,1.6,2.6,1.6,4.4c0,1.8-0.6,3.2-1.6,4.4c-1,1.2-2.6,1.6-4.4,1.6
	C170.4,105.4,168.8,104.6,167.8,103.6z M333.8,99.4c0,1.6-0.6,3.2-1.6,4.4c-1.2,1.2-2.601,1.6-4.4,1.6c-1.6,0-3.2-0.6-4.399-1.6
	c-1.2-1.2-1.601-2.6-1.601-4.4c0-1.8,0.601-3.2,1.601-4.4c1.199-1.2,2.6-1.6,4.399-1.6c1.601,0,3.2,0.6,4.4,1.6
	C333,96.2,333.8,97.8,333.8,99.4z M190.6,158.8c-1.2-1.2-1.6-2.6-1.6-4.399c0-1.601,0.6-3.2,1.6-4.4c1.2-1.2,2.6-1.6,4.4-1.6
	c1.6,0,3.2,0.6,4.4,1.6c1.2,1.2,1.6,2.6,1.6,4.4c0,1.6-0.6,3.199-1.6,4.399c-1.2,1.2-2.6,1.601-4.4,1.601S191.6,160,190.6,158.8z
	 M305,38.4c1.6,0,3.2,0.6,4.4,1.6c1.199,1,1.6,2.6,1.6,4.4c0,1.6-0.6,3.2-1.6,4.4c-1.2,1.2-2.601,1.6-4.4,1.6
	c-1.6,0-3.2-0.6-4.4-1.6c-1.199-1-1.6-2.6-1.6-4.4c0-1.6,0.6-3.2,1.6-4.4C302,39,303.4,38.4,305,38.4z M250,183.4
	c-1.6,0-3.2-0.601-4.4-1.601c-1.2-1.2-1.6-2.6-1.6-4.399c0-1.801,0.6-3.2,1.6-4.4c1.2-1.2,2.6-1.6,4.4-1.6c1.6,0,3.2,0.6,4.4,1.6
	c1.199,1.2,1.6,2.6,1.6,4.4c0,1.8-0.6,3.199-1.6,4.399C253,182.6,251.4,183.4,250,183.4z"/>
</svg>
