<?xml version="1.0" encoding="utf-8"?>
<!-- Generator: Adobe Illustrator 16.0.4, SVG Export Plug-In . SVG Version: 6.00 Build 0)  -->
<!DOCTYPE svg PUBLIC "-//W3C//DTD SVG 1.1//EN" "http://www.w3.org/Graphics/SVG/1.1/DTD/svg11.dtd">
<svg version="1.1" id="Layer_1" xmlns="http://www.w3.org/2000/svg" xmlns:xlink="http://www.w3.org/1999/xlink" x="0px" y="0px"
	 width="500px" height="250px" viewBox="0 0 500 250" enable-background="new 0 0 500 250" xml:space="preserve">
<path fill="#FFFFFF" d="M164.6,144.4h136.8c2.6,0,4.6-2,4.6-4.601V71.6c0-2.6-2-4.6-4.6-4.6H164.6c-2.6,0-4.6,2-4.6,4.6V140
	C160,142.4,162,144.4,164.6,144.4z M169.2,76h127.6v59.2H169.2V76z M287.8,91.6c0.8,1.2,1.2,2.6,0.8,4l-5.6,22.8
	c-0.6,2-2.4,3.4-4.4,3.4c-0.399,0-0.8,0-1.199-0.2c-2.4-0.6-4-3-3.4-5.6l4.2-17.2H272.6c-2.6,0-4.6-2-4.6-4.6c0-2.6,2-4.6,4.6-4.6
	H284C285.6,89.8,287,90.4,287.8,91.6z M260.2,88.6v34.2c0,2.6-2,4.601-4.601,4.601c-2.6,0-4.6-2-4.6-4.601V88.6c0-2.6,2-4.6,4.6-4.6
	C258.2,84,260.2,86,260.2,88.6z M278.4,151.2c1.6,0,3,0.6,4,1.6s1.6,2.601,1.6,4c0,1.4-0.6,3-1.6,4s-2.601,1.601-4,1.601
	c-1.4,0-3-0.601-4-1.601s-1.601-2.6-1.601-4c0-1.399,0.601-3,1.601-4C275.6,151.8,277,151.2,278.4,151.2z M308.2,37.4
	c0,7.2,4.8,13.4,11.399,15.2v48.6H318.4c-2.601,0-4.601,2-4.601,4.6c0,2.6,2,4.6,4.601,4.6h5.6c2.6,0,4.6-2,4.6-4.6V52.6
	c6.601-2,11.4-8,11.4-15.2c0-8.8-7.2-16-16-16S308.2,28.6,308.2,37.4z M324,30.6c3.8,0,6.8,3,6.8,6.8c0,3.8-3,6.8-6.8,6.8
	s-6.8-3-6.8-6.8C317.2,33.6,320.2,30.6,324,30.6z M233,151.2c1.6,0,3,0.6,4,1.6s1.6,2.601,1.6,4c0,1.4-0.6,3-1.6,4
	s-2.6,1.601-4,1.601c-1.6,0-3-0.601-4-1.601s-1.6-2.6-1.6-4c0-1.399,0.6-3,1.6-4S231.4,151.2,233,151.2z M196.6,91.6
	c0.8,1.2,1.2,2.6,0.8,4l-5.6,22.8c-0.6,2-2.4,3.4-4.4,3.4c-0.4,0-0.8,0-1.2-0.2c-2.4-0.6-4-3-3.4-5.6l4.2-17.2h-5.6
	c-2.6,0-4.6-2-4.6-4.6c0-2.6,2-4.6,4.6-4.6h11.4C194.4,89.8,195.8,90.4,196.6,91.6z M242.2,91.6c0.8,1.2,1.2,2.6,0.8,4l-5.6,22.8
	c-0.6,2-2.4,3.4-4.4,3.4c-0.4,0-0.8,0-1.2-0.2c-2.4-0.6-4-3-3.4-5.6l4.2-17.2H227c-2.6,0-4.6-2-4.6-4.6c0-2.6,2-4.6,4.6-4.6h11.4
	C240,89.8,241.4,90.4,242.2,91.6z M214.6,88.6v34.2c0,2.6-2,4.601-4.6,4.601s-4.6-2-4.6-4.601V88.6c0-2.6,2-4.6,4.6-4.6
	S214.6,86,214.6,88.6z M160,174c0-2.6,2-4.6,4.6-4.6h136.8c2.6,0,4.6,2,4.6,4.6s-2,4.6-4.6,4.6H164.6C162,178.6,160,176.6,160,174z
	 M187.4,151.2c1.6,0,3,0.6,4,1.6s1.6,2.601,1.6,4c0,1.4-0.6,3-1.6,4s-2.6,1.601-4,1.601c-1.6,0-3-0.601-4-1.601s-1.6-2.6-1.6-4
	c0-1.399,0.6-3,1.6-4S185.8,151.2,187.4,151.2z"/>
</svg>
