<?xml version="1.0" encoding="utf-8"?>
<!-- Generator: Adobe Illustrator 16.0.4, SVG Export Plug-In . SVG Version: 6.00 Build 0)  -->
<!DOCTYPE svg PUBLIC "-//W3C//DTD SVG 1.1//EN" "http://www.w3.org/Graphics/SVG/1.1/DTD/svg11.dtd">
<svg version="1.1" id="Layer_1" xmlns="http://www.w3.org/2000/svg" xmlns:xlink="http://www.w3.org/1999/xlink" x="0px" y="0px"
	 width="24px" height="24px" viewBox="0 0 24 24" enable-background="new 0 0 24 24" xml:space="preserve">
<path fill="none" d="M0,0h24v24H0V0z"/>
<path fill="#FFFFFF" d="M9,16.17L4.83,12l-1.42,1.41L9,19L21,7l-1.41-1.41L9,16.17z"/>
<path fill="#FFFFFF" d="M5.633,12.789c0,1.645,0.623,3.139,1.644,4.26l1.62,6.453C8.971,23.801,9.22,24,9.519,24h4.883
	c0.299,0,0.549-0.199,0.623-0.498l0.822-3.238c0.074-0.35-0.125-0.698-0.474-0.798c-0.349-0.075-0.698,0.124-0.798,0.474
	l-0.697,2.766h-3.836l-1.096-4.336c0.897,0.499,1.918,0.773,3.015,0.773c3.488,0,6.328-2.841,6.328-6.328
	c0-1.645-0.623-3.14-1.645-4.261l-1.594-6.478c-0.076-0.299-0.324-0.498-0.623-0.498H9.544c-0.299,0-0.548,0.199-0.623,0.498
	L8.099,5.315C8.024,5.664,8.224,6.013,8.573,6.112C8.921,6.187,9.27,5.988,9.37,5.639l0.673-2.766h3.862L15,7.208
	c-0.896-0.498-1.918-0.772-3.014-0.772C8.473,6.461,5.633,9.301,5.633,12.789z M11.961,17.822c-2.766,0-5.033-2.268-5.033-5.033
	c0-2.765,2.267-5.032,5.033-5.032s5.057,2.267,5.057,5.032C17.018,15.555,14.751,17.822,11.961,17.822z M19.285,14.259
	c-0.349,0-0.647-0.299-0.647-0.647v-1.62c0-0.349,0.299-0.647,0.647-0.647c0.35,0,0.648,0.299,0.648,0.647v1.62
	C19.934,13.96,19.635,14.259,19.285,14.259z M14.054,13.96c0.249,0.249,0.249,0.673,0,0.922c-0.124,0.124-0.3,0.199-0.448,0.199
	c-0.175,0-0.324-0.075-0.449-0.199l-1.619-1.619l0,0c-0.025-0.025-0.05-0.075-0.075-0.101c0-0.024-0.025-0.024-0.025-0.049
	c0-0.025-0.025-0.051-0.025-0.051c0-0.024-0.025-0.049-0.025-0.074s0-0.025-0.025-0.05c0-0.05-0.025-0.075-0.025-0.124V9.55
	c0-0.349,0.299-0.647,0.648-0.647c0.349,0,0.647,0.299,0.647,0.647v2.99L14.054,13.96z"/>
</svg>
