<?xml version="1.0" encoding="utf-8"?>
<!-- Generator: Adobe Illustrator 16.0.4, SVG Export Plug-In . SVG Version: 6.00 Build 0)  -->
<!DOCTYPE svg PUBLIC "-//W3C//DTD SVG 1.1//EN" "http://www.w3.org/Graphics/SVG/1.1/DTD/svg11.dtd">
<svg version="1.1" id="Layer_1" xmlns="http://www.w3.org/2000/svg" xmlns:xlink="http://www.w3.org/1999/xlink" x="0px" y="0px"
	 width="500px" height="250px" viewBox="0 0 500 250" enable-background="new 0 0 500 250" xml:space="preserve">
<path fill="#FFFFFF" d="M328.75,162.43v39.614l9.91,5.45c2.418,1.332,3.302,4.372,1.97,6.792c-0.912,1.653-2.622,2.59-4.384,2.59
	c-0.814,0-1.641-0.2-2.406-0.622l-12.5-6.876c-1.598-0.876-2.59-2.554-2.59-4.378v-43.75c0-0.777,0.18-1.542,0.527-2.236L325,147.57
	V117.5c0-0.086,0.021-0.172,0.027-0.258c-0.071-1.738,0.742-3.464,2.322-4.452l17.238-10.774l4.698-13.86l-15.154-15.658h-10.38
	c-2.762,0-5-2.238-5-5c0-2.762,2.238-5,5-5h12.5c1.354,0,2.652,0.548,3.594,1.524l18.75,19.376c1.303,1.344,1.742,3.306,1.143,5.082
	l-6.25,18.438c-0.37,1.092-1.106,2.024-2.084,2.634l-16.4,10.25v28.95c0,0.778-0.182,1.542-0.527,2.236L328.75,162.43z
	 M262.5,211.25c0,2.762,2.238,5,5,5H305c1.542,0,2.992-0.708,3.941-1.922c0.949-1.215,1.285-2.796,0.91-4.292l-12.5-50
	c-0.67-2.679-3.381-4.302-6.063-3.638c-2.679,0.67-4.306,3.384-3.636,6.063l10.945,43.788H267.5
	C264.738,206.25,262.5,208.488,262.5,211.25z M319.568,44.198c-2.514-1.142-5.477-0.032-6.623,2.484l-30.491,67.09
	c-3.738,1.87-12.658,6.862-21.614,15.818c-10.646,10.646-23.338,29.122-23.338,56.66V205c0,2.412-1.962,4.376-4.376,4.376
	s-4.376-1.962-4.376-4.376v-31.25c0-22.132-4.712-37.95-14.006-47.014c-7.542-7.356-15.246-7.375-16.12-7.36
	c-2.76,0.07-4.944,2.364-4.874,5.124c0.07,2.762,2.324,4.934,5.124,4.874l0,0c0.082,0,4.37,0.116,8.886,4.521
	c5.014,4.89,10.988,15.771,10.988,39.855v32.5c0,0.564,0.114,1.096,0.286,1.602c1.328,6.564,7.138,11.524,14.088,11.524
	c7.926,0,14.376-6.45,14.376-14.376v-18.75c0-45.973,39.066-63.438,40.729-64.16c0.01-0.002,0.016-0.01,0.025-0.012
	c0.273-0.122,0.534-0.27,0.782-0.436c0.065-0.044,0.126-0.092,0.19-0.138c0.182-0.134,0.354-0.284,0.518-0.442
	c0.054-0.056,0.113-0.108,0.168-0.166c0.195-0.21,0.38-0.436,0.54-0.684c0.012-0.018,0.021-0.036,0.03-0.054
	c0.117-0.186,0.226-0.382,0.321-0.588l31.25-68.75C323.195,48.306,322.084,45.34,319.568,44.198z"/>
</svg>
