<?xml version="1.0" encoding="utf-8"?>
<!-- Generator: Adobe Illustrator 16.0.4, SVG Export Plug-In . SVG Version: 6.00 Build 0)  -->
<!DOCTYPE svg PUBLIC "-//W3C//DTD SVG 1.1//EN" "http://www.w3.org/Graphics/SVG/1.1/DTD/svg11.dtd">
<svg version="1.1" id="Layer_1" xmlns="http://www.w3.org/2000/svg" xmlns:xlink="http://www.w3.org/1999/xlink" x="0px" y="0px"
	 width="500px" height="250px" viewBox="0 0 500 250" enable-background="new 0 0 500 250" xml:space="preserve">
<g>
	<path fill="#FFFFFF" d="M304.836,96.249h-44.492V25.68c0-1.842-1.492-3.333-3.332-3.333c-1.841,0-3.334,1.491-3.334,3.333v70.569
		h-44.487c-1.842,0-3.333,1.491-3.333,3.333v30.938c0,1.84,1.491,3.334,3.333,3.334h7.558l5.664,53.957
		c0.178,1.698,1.609,2.987,3.316,2.987h62.566c1.707,0,3.139-1.289,3.316-2.987l5.664-53.957h7.561c1.84,0,3.333-1.494,3.333-3.334
		V99.582C308.169,97.74,306.676,96.249,304.836,96.249z M285.293,184.129h-56.564l-5.278-50.277h67.12L285.293,184.129z
		 M301.502,127.185h-7.229h-74.522h-7.224v-24.269h88.977v24.269H301.502z"/>
	<path fill="#FFFFFF" d="M267.463,86.32c0.33,0.153,3.377,1.498,7.938,1.498c0,0,0,0,0.002,0c4.735,0,11.871-1.489,18.965-8.583
		c12.433-12.433,13.742-28.082,13.791-28.742c0.135-1.802-1.191-3.384-2.989-3.564c-0.12-0.011-1.214-0.118-3.005-0.118
		c-5.495,0-19.346,1.069-29.251,10.974c-13.195,13.195-7.337,26.353-7.082,26.906C266.166,85.411,266.744,85.989,267.463,86.32z
		 M277.631,62.498c7.491-7.491,18.021-8.833,23.289-9c-1.061,4.805-3.906,13.667-11.264,21.025c-4.4,4.397-9.196,6.629-14.254,6.629
		c-0.88,0-1.672-0.074-2.362-0.178c2.134-2.938,6.824-8.544,14.371-13.18c1.047-0.642,1.374-2.011,0.731-3.056
		c-0.646-1.047-2.014-1.374-3.059-0.731c-6.713,4.122-11.317,8.896-14.077,12.3C271.111,72.671,272.46,67.667,277.631,62.498z"/>
	<path fill="#FFFFFF" d="M233.262,69.08L233.262,69.08c6.333,0,10.587-1.929,10.765-2.011c0.72-0.331,1.295-0.909,1.629-1.629
		c0.349-0.755,8.333-18.715-9.856-36.902c-17.426-17.429-39.317-19.253-40.242-19.322c-1.804-0.146-3.384,1.191-3.564,2.989
		c-0.113,1.109-2.542,27.342,15.129,45.011C216.931,67.022,226.751,69.08,233.262,69.08z M231.089,33.249
		c11.198,11.198,10.467,21.942,9.34,26.758c-3.44-2.292-13.071-9.431-20.804-22.027c-0.64-1.046-2.007-1.371-3.056-0.731
		c-1.046,0.642-1.373,2.011-0.731,3.056c7.011,11.422,15.353,18.535,20.038,21.955c-0.809,0.089-1.665,0.153-2.611,0.153
		c-5.251,0-13.233-1.72-21.427-9.913c-11.88-11.88-13.305-28.88-13.327-36.133C204.967,17.567,219.28,21.44,231.089,33.249z"/>
</g>
</svg>
