<?xml version="1.0" encoding="utf-8"?>
<!-- Generator: Adobe Illustrator 16.0.4, SVG Export Plug-In . SVG Version: 6.00 Build 0)  -->
<!DOCTYPE svg PUBLIC "-//W3C//DTD SVG 1.1//EN" "http://www.w3.org/Graphics/SVG/1.1/DTD/svg11.dtd">
<svg version="1.1" id="Layer_1" xmlns="http://www.w3.org/2000/svg" xmlns:xlink="http://www.w3.org/1999/xlink" x="0px" y="0px"
	 width="500px" height="250px" viewBox="0 0 500 250" enable-background="new 0 0 500 250" xml:space="preserve">
<path fill="#FFFFFF" d="M166.6,112.4V179c0,2.6,2.2,4.8,4.8,4.8h157.2c2.601,0,4.801-2.2,4.801-4.8v-30.4c0-1.8-1-3.399-2.601-4.199
	L264.2,108c-1.2-0.8-3.2-0.8-4.4,0l-48.4,24c-2.4,1.2-3.4,4-2.2,6.4c1.2,2.399,4,3.399,6.4,2.199l11.2-5.6v37.4
	c0,0.399,0,0.8,0.2,1.199h-50.8v-60.2l10.2-20.6h15.2l0,0l0,0h18.2c2.6,0,4.8-2.2,4.8-4.8s-2.2-4.8-4.8-4.8h-10L238.4,31l44,65.8
	c1,1.4,2.399,2.2,4,2.2c1,0,1.8-0.2,2.6-0.8c2.2-1.4,2.8-4.4,1.2-6.6l-24.4-36.8c0-0.2,0.2-0.2,0.2-0.4l8-12l50.4,78.4
	c1,1.4,2.399,2.2,4,2.2c1,0,1.8-0.2,2.6-0.8c2.2-1.4,3-4.4,1.4-6.6L278.2,31l0,0c-0.2-0.2-0.4-0.4-0.4-0.6l-0.2-0.2L277.4,30
	c-0.2-0.2-0.4-0.4-0.601-0.4l0,0c0,0-0.2,0-0.2-0.2c-0.199-0.2-0.399-0.2-0.6-0.4c-0.2,0-0.4-0.2-0.4-0.2
	c-0.199,0-0.399-0.2-0.399-0.2c-0.2,0-0.4,0-0.601,0c-0.199,0-0.399,0-0.399,0c-0.2,0-0.4,0-0.4,0c-0.2,0-0.399,0-0.6,0
	s-0.4,0-0.601,0.2c-0.199,0-0.399,0-0.399,0.2c-0.2,0-0.4,0.2-0.601,0.4c0,0-0.199,0-0.199,0.2l0,0c-0.2,0.2-0.4,0.4-0.601,0.4
	l-0.2,0.2l-0.199,0.2c-0.2,0.2-0.4,0.4-0.4,0.6l0,0l-10,15.2L242.4,19c0,0,0-0.2-0.2-0.2c-0.2-0.2-0.2-0.2-0.4-0.4
	c-0.2-0.2-0.2-0.2-0.4-0.4c-0.2-0.2-0.2-0.2-0.4-0.4c-0.2-0.2-0.4-0.2-0.4-0.4c0,0-0.2,0-0.2-0.2c0,0-0.2,0-0.2-0.2
	c-0.2,0-0.4-0.2-0.6-0.2c-0.2,0-0.4-0.2-0.4-0.2c-0.2,0-0.4,0-0.6-0.2c-0.2,0-0.4,0-0.4,0c-0.2,0-0.4,0-0.6,0c-0.2,0-0.4,0-0.4,0
	c-0.2,0-0.4,0-0.6,0.2c-0.2,0-0.4,0-0.4,0.2c-0.2,0-0.4,0.2-0.4,0.2c0.2,0,0.2,0.2,0.2,0.2s-0.2,0-0.2,0.2c0,0-0.2,0-0.2,0.2
	c-0.2,0.2-0.2,0.2-0.4,0.4c-0.2,0.2-0.2,0.2-0.4,0.4c-0.2,0.2-0.2,0.2-0.4,0.4c-0.2,0.2-0.2,0.4-0.4,0.4c0,0,0,0.2-0.2,0.2l-35,64.2
	h-15.2c-0.2,0-0.2,0-0.4,0c-0.2,0-0.4,0-0.6,0c-0.2,0-0.4,0-0.4,0.2c-0.2,0-0.4,0-0.4,0.2c-0.2,0-0.4,0.2-0.4,0.2
	c-0.2,0-0.2,0.2-0.4,0.2s-0.2,0.2-0.4,0.2c-0.2,0.2-0.2,0.2-0.4,0.4c-0.2,0.2-0.2,0.2-0.4,0.4c-0.2,0.2-0.2,0.2-0.4,0.4
	c-0.2,0.2-0.2,0.4-0.2,0.4h0.2l-12,24C166.8,110.8,166.6,111.6,166.6,112.4z M323.8,174H297c0.2-0.4,0.2-0.8,0.2-1.2V137l26.6,14.4
	V174L323.8,174z M236.6,130.4l25.2-12.601l25.4,14V173c0,0.4,0,0.8,0.2,1.2H266.6v-13.4c0-2.6-2.199-4.8-4.8-4.8
	c-2.6,0-4.8,2.2-4.8,4.8v13.4h-20.8c0.2-0.4,0.2-0.8,0.2-1.2L236.6,130.4L236.6,130.4z"/>
</svg>
