<?xml version="1.0" encoding="utf-8"?>
<!-- Generator: Adobe Illustrator 16.0.4, SVG Export Plug-In . SVG Version: 6.00 Build 0)  -->
<!DOCTYPE svg PUBLIC "-//W3C//DTD SVG 1.1//EN" "http://www.w3.org/Graphics/SVG/1.1/DTD/svg11.dtd">
<svg version="1.1" id="Layer_1" xmlns="http://www.w3.org/2000/svg" xmlns:xlink="http://www.w3.org/1999/xlink" x="0px" y="0px"
	 width="500px" height="250px" viewBox="0 0 500 250" enable-background="new 0 0 500 250" xml:space="preserve">
<path fill="#FFFFFF" d="M181.8,110.2c8.2,0,15.4-4.6,19-11.4h35.4L257.6,131c0.801,1.2,2.2,2,3.801,2h57c1.399,0,2.8-0.6,3.6-1.8
	l17-22.8c1.2-1.6,1.2-3.6,0.2-5.2L316.4,69l0,0c-0.2-0.2-0.4-0.4-0.601-0.6c-0.2-0.2-0.2-0.2-0.399-0.2c-0.2,0-0.2-0.2-0.4-0.2
	s-0.2-0.2-0.4-0.2c-0.199,0-0.199-0.2-0.399-0.2s-0.4,0-0.4-0.2c-0.2,0-0.2,0-0.399-0.2c-0.2,0-0.601,0-0.801,0l0,0h-57l0,0h-74
	c-12,0.2-21.6,10-21.6,21.8S170,110.2,181.8,110.2z M181.8,76H253.4l21.399,32.2c0.8,1.4,2.4,2,3.8,2c0.801,0,1.801-0.2,2.601-0.8
	c2-1.4,2.6-4.2,1.2-6.4l-18-27h46l19.6,29.4L316.2,124H264l-21.4-32l0,0c-0.2-0.2-0.4-0.4-0.6-0.6c-0.2-0.2-0.2-0.2-0.4-0.2
	c-0.2,0-0.2-0.2-0.4-0.2c-0.2,0-0.2-0.2-0.4-0.2c-0.2,0-0.2-0.2-0.4-0.2c-0.2,0-0.4,0-0.4-0.2c-0.2,0-0.2,0-0.4-0.2
	c-0.2,0-0.6,0-0.8,0l0,0h-35.4c0-0.4,0-0.8,0-1.2c0-2.6-2-4.6-4.6-4.6c-2.6,0-4.6,2-4.6,4.6c0,7-5.6,12.6-12.6,12.6S169,96,169,89
	C169.4,81.6,175,76,181.8,76z M250.2,155.8c-2.6,0-4.6-2-4.6-4.6c0-2.601,2-4.601,4.6-4.601h72.2l4.399-4.399
	c1.8-1.8,4.601-1.8,6.4,0s1.8,4.6,0,6.399L327.6,154.2c-0.8,0.8-2,1.399-3.199,1.399L250.2,155.8L250.2,155.8z M312.8,53.2h-58.2
	c0,0.4,0.2,0.8,0.2,1.2c0,1.2-0.399,2.4-1.399,3.2c-0.801,0.8-2,1.4-3.2,1.4s-2.4-0.4-3.2-1.4c-0.8-0.8-1.4-2-1.4-3.2
	c0-0.4,0-0.8,0.2-1.2h-58.2c-2.6,0-4.6-2-4.6-4.6s2-4.6,4.6-4.6H313c2.6,0,4.6,2,4.6,4.6C317.4,51.2,315.4,53.2,312.8,53.2z"/>
</svg>
