<?xml version="1.0" encoding="utf-8"?>
<!-- Generator: Adobe Illustrator 16.0.4, SVG Export Plug-In . SVG Version: 6.00 Build 0)  -->
<!DOCTYPE svg PUBLIC "-//W3C//DTD SVG 1.1//EN" "http://www.w3.org/Graphics/SVG/1.1/DTD/svg11.dtd">
<svg version="1.1" id="Layer_1" xmlns="http://www.w3.org/2000/svg" xmlns:xlink="http://www.w3.org/1999/xlink" x="0px" y="0px"
	 width="500px" height="250px" viewBox="0 0 500 250" enable-background="new 0 0 500 250" xml:space="preserve">
<path fill="#FFFFFF" d="M203.144,187.857l31.25-12.5c1.192-0.476,2.522-0.476,3.714,0l31.25,12.5
	c2.566,1.026,3.812,3.937,2.787,6.498c-0.783,1.957-2.66,3.146-4.645,3.146c-0.62,0-1.246-0.115-1.854-0.359l-29.396-11.756
	l-29.394,11.756c-2.56,1.025-5.472-0.221-6.5-2.789C199.332,191.794,200.578,188.882,203.144,187.857z M272.5,211.25
	c0-2.762-2.238-5-5-5H205c-2.762,0-5,2.238-5,5s2.238,5,5,5h62.5C270.262,216.25,272.5,214.012,272.5,211.25z M287.857,194.355
	c1.029,2.566,3.938,3.812,6.498,2.789l29.395-11.756l29.395,11.756c0.607,0.244,1.233,0.359,1.854,0.359
	c1.984,0,3.861-1.189,4.645-3.146c1.025-2.562-0.221-5.471-2.789-6.498l-31.25-12.5c-1.191-0.476-2.521-0.476-3.711,0l-31.25,12.5
	C288.078,188.882,286.832,191.794,287.857,194.355z M360,211.25c0-2.762-2.238-5-5-5h-62.5c-2.762,0-5,2.238-5,5s2.238,5,5,5H355
	C357.762,216.25,360,214.012,360,211.25z M236.25,75c-6.344,0-12.308,2.472-16.794,6.956c-4.484,4.486-6.956,10.452-6.956,16.794
	s2.472,12.308,6.956,16.794c1.954,1.952,5.12,1.954,7.072,0c1.954-1.954,1.954-5.12,0-7.072c-2.596-2.598-4.026-6.05-4.026-9.722
	s1.43-7.126,4.03-9.722c2.596-2.598,6.048-4.028,9.72-4.028s7.126,1.43,9.722,4.03c2.596,2.596,4.026,6.048,4.026,9.72
	s-1.43,7.126-4.028,9.72c-1.954,1.954-1.954,5.12-0.002,7.072c0.976,0.976,2.258,1.464,3.538,1.464c1.278,0,2.559-0.49,3.536-1.464
	c4.483-4.484,6.956-10.448,6.956-16.792s-2.473-12.308-6.956-16.794C248.558,77.472,242.594,75,236.25,75z M248.75,125
	c-2.762,0-5,2.238-5,5c0,26.212,12.794,45.706,13.34,46.523c0.965,1.444,2.544,2.225,4.16,2.225c0.95,0,1.912-0.271,2.764-0.836
	c2.297-1.528,2.924-4.628,1.402-6.928C265.3,170.809,253.75,153.082,253.75,130C253.75,127.238,251.512,125,248.75,125z
	 M208.476,177.91c0.852,0.568,1.816,0.84,2.77,0.84c1.616,0,3.202-0.782,4.166-2.227c0.544-0.817,13.34-20.31,13.34-46.523
	c0-2.762-2.238-5-5-5c-2.762,0-5,2.238-5,5c0,23.082-11.548,40.809-11.66,40.977C205.558,173.273,206.178,176.378,208.476,177.91z
	 M291.288,178.602c2.676,0.666,5.392-0.959,6.063-3.638l6.25-25c0.2-0.796,0.2-1.628,0-2.424l-5.804-23.206l17.274-34.544
	l22.43-13.46v9.92c0,0.906,0.246,1.796,0.712,2.572l17.336,28.896l-2.786,5.574l-20.527-10.266
	c-1.986-0.994-4.395-0.556-5.906,1.076c-1.51,1.63-1.762,4.064-0.618,5.968l18.368,30.612l6.068,24.278
	c0.565,2.274,2.607,3.79,4.848,3.79c0.398,0,0.806-0.048,1.214-0.15c2.681-0.67,4.308-3.384,3.638-6.062l-6.25-25
	c-0.119-0.478-0.31-0.938-0.562-1.362l-9.916-16.525l9.64,4.822c2.469,1.231,5.473,0.233,6.708-2.236l6.25-12.5
	c0.765-1.53,0.696-3.344-0.184-4.81l-18.038-30.06V67.5c0-1.8-0.969-3.464-2.538-4.35c-1.563-0.888-3.487-0.864-5.034,0.064
	l-31.244,18.75c-0.816,0.488-1.474,1.2-1.902,2.05l-18.75,37.5c-0.533,1.068-0.666,2.292-0.377,3.45l5.947,23.786l-5.947,23.788
	C286.98,175.216,288.609,177.932,291.288,178.602z"/>
</svg>
