<?xml version="1.0" encoding="utf-8"?>
<!-- Generator: Adobe Illustrator 16.0.4, SVG Export Plug-In . SVG Version: 6.00 Build 0)  -->
<!DOCTYPE svg PUBLIC "-//W3C//DTD SVG 1.1//EN" "http://www.w3.org/Graphics/SVG/1.1/DTD/svg11.dtd">
<svg version="1.1" id="Layer_1" xmlns="http://www.w3.org/2000/svg" xmlns:xlink="http://www.w3.org/1999/xlink" x="0px" y="0px"
	 width="500px" height="250px" viewBox="0 0 500 250" enable-background="new 0 0 500 250" xml:space="preserve">
<g>
	<path fill="#FFFFFF" d="M303.334,22.5c0-8.75-7.084-16.25-16.25-16.25c-8.75,0-16.25,7.083-16.25,16.25v26.25h32.5V22.5z"/>
	<path fill="#FFFFFF" d="M298.75,94.583l-7.5-10.417h-8.75l-6.25,10c-1.25,2.083-3.334,3.75-5,5.417v72.5
		c0,8.75,7.084,16.25,16.25,16.25c8.75,0,16.25-7.084,16.25-16.25V99.167C301.666,97.917,300,96.25,298.75,94.583z"/>
	<path fill="#FFFFFF" d="M303.75,60.417h-34.166L256.25,81.25c-1.666,2.917-0.834,6.25,1.666,8.333
		c0.834,0.833,2.084,0.833,3.334,0.833c2.084,0,3.75-0.833,5-2.917l10-15.417h21.25l10.834,15.833
		c1.666,2.5,5.416,3.333,8.332,1.667c2.5-1.667,3.334-5.417,1.668-8.333L303.75,60.417z"/>
	<path fill="#FFFFFF" d="M228.75,22.5c0-8.75-7.083-16.25-16.25-16.25c-8.75,0-16.25,7.083-16.25,16.25v26.25h32.5V22.5z"/>
	<path fill="#FFFFFF" d="M224.167,94.583l-7.5-10.417h-8.75l-6.25,10c-1.25,2.083-3.333,3.75-5,5.417v72.5
		c0,8.75,7.083,16.25,16.25,16.25c8.75,0,16.25-7.084,16.25-16.25V99.167C227.083,97.917,225.417,96.25,224.167,94.583z"/>
	<path fill="#FFFFFF" d="M229.167,60.417H195L181.667,81.25c-1.667,2.917-0.833,6.25,1.667,8.333
		c0.833,0.833,2.083,0.833,3.333,0.833c2.083,0,3.75-0.833,5-2.917l10-15.417h21.25l10.833,15.833
		c1.667,2.5,5.417,3.333,8.333,1.667c2.5-1.667,3.333-5.417,1.667-8.333L229.167,60.417z"/>
	<path fill="#FFFFFF" d="M159.167,32.5c-3.333,0-5.833,2.5-5.833,5.833V187.5c0,3.334,2.5,5.834,5.833,5.834
		c3.333,0,5.833-2.5,5.833-5.834V38.333C165,35.417,162.5,32.5,159.167,32.5z"/>
	<path fill="#FFFFFF" d="M340.834,32.5C337.5,32.5,335,35,335,38.333V187.5c0,3.334,2.5,5.834,5.834,5.834
		c3.332,0,5.832-2.5,5.832-5.834V38.333C346.666,35.417,344.166,32.5,340.834,32.5z"/>
</g>
</svg>
