<?xml version="1.0" encoding="utf-8"?>
<!-- Generator: Adobe Illustrator 16.0.4, SVG Export Plug-In . SVG Version: 6.00 Build 0)  -->
<!DOCTYPE svg PUBLIC "-//W3C//DTD SVG 1.1//EN" "http://www.w3.org/Graphics/SVG/1.1/DTD/svg11.dtd">
<svg version="1.1" id="Layer_1" xmlns="http://www.w3.org/2000/svg" xmlns:xlink="http://www.w3.org/1999/xlink" x="0px" y="0px"
	 width="500px" height="250px" viewBox="0 0 500 250" enable-background="new 0 0 500 250" xml:space="preserve">
<path fill="#FFFFFF" d="M250,180.4c44.2,0,80.4-36,80.4-80.4c0-44.4-36.2-80.4-80.4-80.4s-80.4,36.2-80.4,80.4
	S205.8,180.4,250,180.4z M255.6,30.8C291.2,33.6,319.4,63.4,319.4,100c0,17.4-6.4,33.2-17,45.4c-0.2-0.601-0.601-1-1-1.4l-46-46
	L255.6,30.8L255.6,30.8z M255.6,113.2L294,151.6c0.6,0.601,0.8,0.801,1.4,1C284.6,162,270.8,168.2,255.6,169.2V113.2z M244.4,169.2
	c-15.2-1.2-28.8-7.2-39.8-16.601c0.6-0.199,1-0.6,1.4-1l38.4-38.399V169.2z M244.4,30.8v67l-46,46c-0.6,0.601-0.8,0.8-1,1.4
	c-10.6-12.2-17-28-17-45.4C180.6,63.6,208.8,33.6,244.4,30.8z"/>
</svg>
