<?xml version="1.0" encoding="utf-8"?>
<!-- Generator: Adobe Illustrator 16.0.4, SVG Export Plug-In . SVG Version: 6.00 Build 0)  -->
<!DOCTYPE svg PUBLIC "-//W3C//DTD SVG 1.1//EN" "http://www.w3.org/Graphics/SVG/1.1/DTD/svg11.dtd">
<svg version="1.1" id="Layer_1" xmlns="http://www.w3.org/2000/svg" xmlns:xlink="http://www.w3.org/1999/xlink" x="0px" y="0px"
	 width="500px" height="250px" viewBox="0 0 500 250" enable-background="new 0 0 500 250" xml:space="preserve">
<path fill="#FFFFFF" d="M324.4,152.2H175.6c-3,0-5.4,2.399-5.4,5.399v0.601c0,1.399,0.6,2.8,1.6,3.8l27,26.4c1,1,2.4,1.6,3.8,1.6
	h94.8c1.399,0,2.8-0.6,3.8-1.6l27-27c1.6-1.601,2-3.801,1.2-5.801C328.6,153.4,326.6,152.2,324.4,152.2z M295.2,179.2h-90.4
	L188.2,163h123.2L295.2,179.2z M331.2,135.8H250c-3,0-5.4-2.399-5.4-5.399s2.4-5.4,5.4-5.4h68.2l-89.8-89.8v102
	c0,3-2.4,5.399-5.4,5.399s-5.4-2.399-5.4-5.399v-92l-40,80H196c3,0,5.4,2.399,5.4,5.399S199,136,196,136h-27.2c-1.8,0-3.6-1-4.6-2.6
	c-1-1.601-1-3.601-0.2-5.2L217.6,21v-5.6c0-3,2.4-5.4,5.4-5.4s5.4,2.4,5.4,5.4V20L335,126.6c1.6,1.601,2,3.801,1.2,5.801
	C335.4,134.6,333.4,135.8,331.2,135.8z"/>
</svg>
