<?xml version="1.0" encoding="utf-8"?>
<!-- Generator: Adobe Illustrator 16.0.4, SVG Export Plug-In . SVG Version: 6.00 Build 0)  -->
<!DOCTYPE svg PUBLIC "-//W3C//DTD SVG 1.1//EN" "http://www.w3.org/Graphics/SVG/1.1/DTD/svg11.dtd">
<svg version="1.1" id="Layer_1" xmlns="http://www.w3.org/2000/svg" xmlns:xlink="http://www.w3.org/1999/xlink" x="0px" y="0px"
	 width="500px" height="250px" viewBox="0 0 500 250" enable-background="new 0 0 500 250" xml:space="preserve">
<path fill="#FFFFFF" d="M280.6,113c-2.199-1.2-5-0.2-6.199,2l-10.2,20.2h-50.4c0.6-2.2,0.8-4.4,0.8-6.8c0-15-12.2-27.4-27.4-27.4
	c-15.2,0-27.2,12.4-27.2,27.4c0,15,12.2,27.399,27.4,27.399c9.2,0,17.2-4.6,22.2-11.399c0.2,0,0.4,0,0.6,0h57l0,0c0.2,0,0.6,0,0.8,0
	h0.2c0.2,0,0.399-0.2,0.6-0.2c0,0,0,0,0.2,0c0.2-0.2,0.4-0.2,0.6-0.4c0,0,0.2,0,0.2-0.2c0.2-0.199,0.4-0.199,0.4-0.399
	c0,0,0,0,0.2-0.2c0.199-0.2,0.399-0.4,0.6-0.6c0,0,0,0,0-0.2s0.2-0.2,0.2-0.4L282.6,119C283.6,116.8,282.8,114.2,280.6,113z
	 M187.4,146.8c-10,0-18.2-8.2-18.2-18.2c0-10,8.2-18.2,18.2-18.2s18.2,8.2,18.2,18.2C205.6,138.6,197.4,146.8,187.4,146.8z M202,74
	l10,10h25.8l49.8-19.8L275.4,52c-1.801-1.8-1.801-4.6,0-6.4c1.8-1.8,4.6-1.8,6.399,0l15.8,15.8c11,1,19.601,10.2,19.601,21.6v5.6
	c0,2.6-2,4.6-4.601,4.6c-2.6,0-4.6-2-4.6-4.6V83c0-6.6-5.2-12-11.8-12.4l-56,22.4c-0.6,0.2-1.2,0.4-1.6,0.4h-28.4
	c-0.2,0-0.6,0-0.8,0c-0.2,0-0.2,0-0.4-0.2c-0.2,0-0.4,0-0.4-0.2c-0.2,0-0.2-0.2-0.4-0.2c-0.2,0-0.2-0.2-0.4-0.2
	c-0.2-0.2-0.4-0.4-0.6-0.6l0,0l-9.4-9.4L166,93c-0.4,0.2-1,0.2-1.4,0.2c-2,0-3.6-1.2-4.4-3.2c-0.8-2.4,0.4-5,2.8-5.8l34.2-11.4h0.2
	c0.2,0,0.4,0,0.4-0.2c0.2,0,0.2,0,0.4,0c0.2,0,0.2,0,0.4,0c0.2,0,0.4,0,0.4,0c0.2,0,0.2,0,0.4,0c0.2,0,0.2,0,0.4,0.2
	c0.2,0,0.2,0,0.4,0.2c0.2,0,0.2,0.2,0.4,0.2c0.2,0,0.2,0.2,0.4,0.2s0.2,0.2,0.4,0.4C201.8,73.8,201.8,74,202,74z M299.6,92.2
	l17,34.2c1.2,2.199,0.2,5-2,6.199c-0.6,0.4-1.399,0.4-2,0.4c-1.6,0-3.199-1-4-2.6l-17-34.2c-1.199-2.2-0.199-5,2-6.2
	C295.8,89.2,298.6,90,299.6,92.2z M255.6,112.6c2.601,0,4.601,2,4.601,4.6c0,2.6-2,4.6-4.601,4.6H227.2c-2.6,0-4.6-2-4.6-4.6
	c0-2.6,2-4.6,4.6-4.6H255.6z M338,118c1.4,3.4,2,6.8,2,10.4c0,15-12.2,27.399-27.4,27.399c-7.399,0-14.199-2.8-19.399-8
	s-8-12-8-19.399c0-3.601,0.6-7.2,2-10.4c1-2.4,3.6-3.4,6-2.4c2.399,1,3.399,3.6,2.399,6c-1,2.2-1.399,4.6-1.399,7
	c0,4.801,1.8,9.4,5.399,12.801c3.4,3.399,8,5.399,12.801,5.399c10,0,18.199-8.2,18.199-18.2c0-2.399-0.399-4.8-1.399-7
	c-1-2.2-2.2-4.2-4-6c-1.8-1.8-3.601-3-6-4c-2.4-1-3.4-3.6-2.4-6s3.601-3.4,6-2.4c3.4,1.4,6.4,3.4,8.8,6
	C334.6,111.8,336.6,114.6,338,118z M191.4,124.4c1,1,1.6,2.6,1.6,4c0,1.6-0.6,3-1.6,4s-2.6,1.6-4,1.6s-3-0.6-4-1.6s-1.6-2.601-1.6-4
	c0-1.601,0.6-3,1.6-4s2.6-1.6,4-1.6S190.4,123.4,191.4,124.4z"/>
</svg>
