<?xml version="1.0" encoding="utf-8"?>
<!-- Generator: Adobe Illustrator 16.0.4, SVG Export Plug-In . SVG Version: 6.00 Build 0)  -->
<!DOCTYPE svg PUBLIC "-//W3C//DTD SVG 1.1//EN" "http://www.w3.org/Graphics/SVG/1.1/DTD/svg11.dtd">
<svg version="1.1" id="Layer_1" xmlns="http://www.w3.org/2000/svg" xmlns:xlink="http://www.w3.org/1999/xlink" x="0px" y="0px"
	 width="500px" height="250px" viewBox="0 0 500 250" enable-background="new 0 0 500 250" xml:space="preserve">
<g>
	<path fill="#FFFFFF" d="M252.127,71.727c-5.991,0-10.865,4.874-10.865,10.865c0,5.989,4.874,10.862,10.865,10.862
		c5.988,0,10.864-4.873,10.864-10.862C262.991,76.6,258.115,71.727,252.127,71.727z"/>
	<path fill="#FFFFFF" d="M287.587,114.211c-0.04-20.64-0.114-61.14-0.114-63.682c-0.046-1.631-0.359-4.773-1.742-6.586
		c-1.582-2.187-2.715-3.225-4.577-4.476c-8.657-6.009-29.103-5.96-29.103-5.96v0.024c-1.777,0.009-20.704,0.235-28.951,5.96
		c-1.862,1.249-2.998,2.287-4.578,4.476c-1.382,1.813-1.696,4.956-1.745,6.586c0,2.544-0.073,43.011-0.109,63.658
		C240.762,117.484,263.493,117.491,287.587,114.211z M274.645,110.838c-2.617,0-4.74-2.123-4.74-4.745c0-2.618,2.123-4.74,4.74-4.74
		s4.74,2.122,4.74,4.74C279.385,108.716,277.262,110.838,274.645,110.838z M221.811,53.44c1.529-7.784,4.431-8.698,4.785-8.831
		c0.307-0.116,0.842-0.14,0.842-0.14h49.373c0,0,0.536,0.027,0.843,0.14c0.355,0.133,3.258,1.044,4.786,8.831
		c0.176,1.087-1.291,1.038-1.291,1.038h-58.046C223.102,54.478,221.636,54.527,221.811,53.44z M229.609,110.838
		c-2.618,0-4.74-2.123-4.74-4.745c0-2.618,2.122-4.74,4.74-4.74s4.742,2.122,4.742,4.74
		C234.351,108.716,232.227,110.838,229.609,110.838z M236.522,82.591c0-8.604,7-15.604,15.604-15.604
		c8.604,0,15.602,7,15.602,15.604c0,8.604-6.998,15.602-15.602,15.602C243.522,98.193,236.522,91.195,236.522,82.591z"/>
	<path fill="#FFFFFF" d="M273.643,129.031c2.418-0.164,4.762-0.369,6.854-0.615c6.324-0.889,7.113-2.305,7.113-2.305
		s-0.01-3.382-0.018-8.716c-24.085,3.235-46.845,3.235-70.927,0c-0.009,5.345-0.016,8.74-0.016,8.74s0.789,1.417,7.111,2.307
		c2.087,0.244,4.425,0.446,6.838,0.613l-23.506,29.187h7.109l3.815-4.74h68.22l3.815,4.74h7.109L273.643,129.031z M237.4,129.436
		c7.858,0.347,14.802,0.387,14.802,0.387v-0.027c1.011-0.008,7.44-0.064,14.636-0.384l4.449,5.524h-38.318L237.4,129.436z
		 M223.745,146.394l5.091-6.322h46.586l5.09,6.322H223.745z"/>
</g>
</svg>
