<?xml version="1.0" encoding="utf-8"?>
<!-- Generator: Adobe Illustrator 16.0.4, SVG Export Plug-In . SVG Version: 6.00 Build 0)  -->
<!DOCTYPE svg PUBLIC "-//W3C//DTD SVG 1.1//EN" "http://www.w3.org/Graphics/SVG/1.1/DTD/svg11.dtd">
<svg version="1.1" id="Layer_1" xmlns="http://www.w3.org/2000/svg" xmlns:xlink="http://www.w3.org/1999/xlink" x="0px" y="0px"
	 width="500px" height="250px" viewBox="0 0 500 250" enable-background="new 0 0 500 250" xml:space="preserve">
<path fill="#FFFFFF" d="M306.8,181.8l-6.2-12.399c-1.199-2.4-0.199-5.4,2.2-6.601c2.4-1.2,5.4-0.2,6.601,2.2l6.199,12.2
	c1.2,2.399,0.2,5.399-2.199,6.6c-0.801,0.4-1.601,0.601-2.2,0.601C309.4,184.4,307.6,183.6,306.8,181.8z M331.8,156.8l-12.399-6.2
	c-2.4-1.199-5.4-0.199-6.601,2.2c-1.2,2.4-0.2,5.4,2.2,6.601l12.2,6.199c0.8,0.4,1.6,0.601,2.2,0.601c1.8,0,3.6-1,4.399-2.601
	C335.2,161,334,158,331.8,156.8z M180.6,49.4c0.8,0.4,1.6,0.6,2.2,0.6c1.8,0,3.6-1,4.4-2.6c1.2-2.4,0.2-5.4-2.2-6.6l-12.2-6.2
	c-2.4-1.2-5.4-0.2-6.6,2.2c-1.2,2.4-0.2,5.4,2.2,6.6L180.6,49.4z M186.6,16c-2.4,1.2-3.4,4.2-2.2,6.6l6.2,12.2
	c1,1.6,2.6,2.6,4.4,2.6c0.8,0,1.6-0.2,2.2-0.6c2.4-1.2,3.4-4.2,2.2-6.6L193.2,18C192,16,189,14.8,186.6,16z M334.4,81.2
	c0,0.4,0,0.6,0,1c0,1-0.4,1.8-1.2,2.6c0,0.2-0.2,0.2-0.2,0.4l-79.4,85.6c0,0,0,0-0.199,0c-0.2,0.2-0.2,0.2-0.4,0.4l-0.2,0.2l0,0
	c0,0-0.2,0-0.2,0.199c-0.199,0-0.199,0.2-0.399,0.2c0,0-0.2,0-0.2,0.2h-0.2h-0.2c-0.199,0-0.399,0.2-0.6,0.2l0,0h-0.2h-0.2h-0.2
	c-0.2,0-0.4,0-0.8,0l0,0h-0.2h-0.2c-0.2,0-0.4,0-0.6,0h-0.2h-0.2c-0.2,0-0.4,0-0.4-0.2h-0.2c0,0,0,0-0.2,0c0,0,0,0-0.2,0l0,0
	c-0.2,0-0.2-0.2-0.4-0.2c0,0-0.2,0-0.2-0.2c0,0-0.2,0-0.2-0.199l-0.2-0.2c-0.2,0-0.2-0.2-0.4-0.2l0,0l0.2-0.2c0,0,0,0-0.2-0.2
	l-67-85.8c-0.8-1-1.2-1.8-1.2-3c0-0.2,0-0.4,0-0.6l0,0l0,0c0-1,0.6-2,1.2-2.8l0.2-0.2l36.8-36.8c1-1,2.2-1.6,3.4-1.6H292.6
	c1.4,0,2.601,0.6,3.4,1.6l36.8,36.8C333.8,79,334.2,80.2,334.4,81.2z M276.2,49.8l13.6,26.8h28l-27-26.8H276.2z M247,49.8
	l-13.6,26.8h45.4l-13.6-26.8H247z M194.4,76.8h28L236,50h-14.4L194.4,76.8z M238.4,144.6l-16.8-58.2h-28.8L238.4,144.6z M279.2,86.4
	H232l19,66.2L279.2,86.4z M318.2,86.4H290l-24.4,56.8L318.2,86.4z"/>
</svg>
