<?xml version="1.0" encoding="utf-8"?>
<!-- Generator: Adobe Illustrator 16.0.4, SVG Export Plug-In . SVG Version: 6.00 Build 0)  -->
<!DOCTYPE svg PUBLIC "-//W3C//DTD SVG 1.1//EN" "http://www.w3.org/Graphics/SVG/1.1/DTD/svg11.dtd">
<svg version="1.1" id="Layer_1" xmlns="http://www.w3.org/2000/svg" xmlns:xlink="http://www.w3.org/1999/xlink" x="0px" y="0px"
	 width="500px" height="250px" viewBox="0 0 500 250" enable-background="new 0 0 500 250" xml:space="preserve">
<path fill="#FFFFFF" d="M247.6,172.2c0.8,0.399,1.6,0.6,2.4,0.6s1.6-0.2,2.4-0.6c46.8-23.4,77-59.6,77-92.4
	c0-34.6-23.2-52.6-45.801-52.6c-13,0-26.399,6.2-33.6,18.4c-7-12-20.4-18.4-33.6-18.4c-22.8,0-45.8,18-45.8,52.6
	C170.6,112.6,200.8,148.8,247.6,172.2z M216.4,38c13.6,0,28.2,8.8,28.2,28.4c0,3,2.4,5.4,5.4,5.4s5.4-2.4,5.4-5.4
	C255.4,46.8,270,38,283.6,38c17,0,35.2,13,35.2,41.8c0,28-26.8,59.8-68.6,81.601c-42-21.601-68.8-53.4-68.8-81.601
	C181.4,51.2,199.6,38,216.4,38z M211,91.8h-8.2c-3,0-5.4-2.4-5.4-5.4s2.4-5.4,5.4-5.4h8.2v-8.2c0-3,2.4-5.4,5.4-5.4s5.2,2.6,5.2,5.6
	v8.2h8.2c3,0,5.4,2.4,5.4,5.4s-2.4,5.4-5.4,5.4h-8.2v8c0,3-2.4,5.4-5.4,5.4s-5.4-2.4-5.4-5.4L211,91.8L211,91.8z"/>
</svg>
