<?xml version="1.0" encoding="utf-8"?>
<!-- Generator: Adobe Illustrator 16.0.4, SVG Export Plug-In . SVG Version: 6.00 Build 0)  -->
<!DOCTYPE svg PUBLIC "-//W3C//DTD SVG 1.1//EN" "http://www.w3.org/Graphics/SVG/1.1/DTD/svg11.dtd">
<svg version="1.1" id="Layer_1" xmlns="http://www.w3.org/2000/svg" xmlns:xlink="http://www.w3.org/1999/xlink" x="0px" y="0px"
	 width="500px" height="250px" viewBox="0 0 500 250" enable-background="new 0 0 500 250" xml:space="preserve">
<circle fill="none" stroke="#FFFFFF" stroke-width="7" stroke-miterlimit="10" cx="199.006" cy="63.236" r="23.506"/>
<g>
	<path fill="none" stroke="#FFFFFF" stroke-width="5" stroke-miterlimit="10" d="M233.575,187.605c-8.795-8.719,0-15.185,0-15.185
		s19-15.567,25.827-21.737c5.518-4.99,0-8.852,0-8.852l-18.684-13.576l-0.017,0.025c0,0-12.667-9.8-19.434-15.185
		c-9.917-7.891-15.529,0-15.529,0l-42.259,44.596v48.144h87.292C246.284,200.923,238.54,192.525,233.575,187.605z"/>
	<path fill="none" stroke="#FFFFFF" stroke-width="5" stroke-miterlimit="10" d="M300.648,78.979c-10.738-10.739-19.744,0-19.744,0
		l-34.764,41.129c6.954,4.9,24.68,17.613,26.984,19.461c5.736,4.597,0.437,10.275,0.437,10.275s-26.057,23.774-28.768,26.484
		c-2.711,2.712,0,5.21,0,5.21L270.5,205l63-0.164v-82.858C333.5,121.978,311.387,89.715,300.648,78.979z"/>
</g>
</svg>
