<?xml version="1.0" encoding="utf-8"?>
<!-- Generator: Adobe Illustrator 16.0.4, SVG Export Plug-In . SVG Version: 6.00 Build 0)  -->
<!DOCTYPE svg PUBLIC "-//W3C//DTD SVG 1.1//EN" "http://www.w3.org/Graphics/SVG/1.1/DTD/svg11.dtd">
<svg version="1.1" id="Layer_1" xmlns="http://www.w3.org/2000/svg" xmlns:xlink="http://www.w3.org/1999/xlink" x="0px" y="0px"
	 width="500px" height="250px" viewBox="0 0 500 250" enable-background="new 0 0 500 250" xml:space="preserve">
<path fill="#FFFFFF" d="M229,36.6c0,9.8,8,17.6,17.6,17.6s17.6-8,17.6-17.6S256.4,19,246.6,19S229,27,229,36.6z M254.4,36.6
	c0,4.2-3.4,7.6-7.601,7.6c-4.2,0-7.6-3.4-7.6-7.6c0-4.2,3.4-7.6,7.6-7.6C251,29,254.4,32.6,254.4,36.6z M173.4,27.6L216.8,71l5.6,29
	l-14.2,1.4c-2,0.2-3.6,1.6-4.4,3.4l-6.2,19.2c-0.4,1.2-0.4,2.8,0.4,3.8l6.4,12.601c0.6,1.199,1.6,2.199,2.8,2.6l19,6.4
	c0.6,0.199,1,0.199,1.6,0.199c0.4,0,1,0,1.2-0.199v21.8h-52c-2.8,0-5,2.399-5,5c0,2.8,2.2,5.2,5,5.2h139.6c2.801,0,5-2.4,5-5
	c0-2.801-2.399-5-5-5h-52V132.6l4.4-21.8l6.4-6.4l50-25c2.6-1.2,3.6-4.4,2.399-6.8c-1.2-2.6-4.399-3.6-6.8-2.4l-48.8,24l4.6-23.6
	l43.4-43.4c2-2,2-5.2,0-7.2s-5.2-2-7.2,0l-44.4,44.4c-0.8,0.8-1.199,1.6-1.399,2.6l-5.8,28.8l-28.8,2.8L226.2,67
	c-0.2-1-0.8-1.8-1.4-2.6l-44.2-44c-2-2-5.2-2-7.2,0S171.4,25.6,173.4,27.6z M254.4,130.8c0,0.4-0.2,0.8-0.2,1v39.4H239v-30.8
	l16.8-16.8L254.4,130.8z M226.2,138.8l-14-4.6l-4.6-8.8l4.6-14l46-4.6L226.2,138.8z"/>
</svg>
