<?xml version="1.0" encoding="utf-8"?>
<!-- Generator: Adobe Illustrator 16.0.4, SVG Export Plug-In . SVG Version: 6.00 Build 0)  -->
<!DOCTYPE svg PUBLIC "-//W3C//DTD SVG 1.1//EN" "http://www.w3.org/Graphics/SVG/1.1/DTD/svg11.dtd">
<svg version="1.1" id="Layer_1" xmlns="http://www.w3.org/2000/svg" xmlns:xlink="http://www.w3.org/1999/xlink" x="0px" y="0px"
	 width="500px" height="250px" viewBox="0 0 500 250" enable-background="new 0 0 500 250" xml:space="preserve">
<path fill="#FFFFFF" d="M168.6,72c-1.6,1.4-2.2,3.4-1.6,5.2l24.2,72.399c0.8,1.801,2.4,3.4,4.6,3.4H304.4c2,0,4-1.4,4.6-3.4
	L333.2,77.2c0.6-1.8,0-4.2-1.601-5.2c-1.6-1.4-3.8-1.4-5.6-0.4L282.2,99l-28-55.6c-0.8-1.6-2.4-2.6-4.4-2.6s-3.6,1.2-4.4,2.6L218,99
	l-43.8-27.2C172.4,70.6,170.2,70.8,168.6,72z M217.4,110.2c1.2,0.8,2.6,1,4,0.6c1.4-0.4,2.4-1.4,3-2.4l25.6-52l26,51.6
	c0.6,1.2,1.6,2,3,2.4s2.6,0.2,4-0.6l37-23l-18.8,56.4h-102l-18.8-56.4L217.4,110.2z M254.4,23.4c1.199,1.2,1.6,2.6,1.6,4.4
	c0,1.6-0.6,3.2-1.6,4.4c-1.2,1.2-2.601,1.6-4.4,1.6c-1.6,0-3.2-0.6-4.4-1.6c-1.2-1.2-1.6-2.6-1.6-4.4c0-1.8,0.6-3.2,1.6-4.4
	c1.2-1.2,2.6-1.6,4.4-1.6C251.6,21.6,253.2,22.2,254.4,23.4z M167.2,62c-1.2-1.2-1.6-2.6-1.6-4.4c0-1.6,0.6-3.2,1.6-4.4
	c1.2-1.2,2.6-1.6,4.4-1.6c1.6,0,3.2,0.6,4.4,1.6c1.2,1.2,1.6,2.6,1.6,4.4c0,1.6-0.6,3.2-1.6,4.4c-1.2,1.2-2.6,1.6-4.4,1.6
	C170,63.8,168.4,63.2,167.2,62z M190.8,184.4c0-2.601,2.2-4.801,4.8-4.801h108.6c2.6,0,4.8,2.2,4.8,4.801c0,2.6-2.2,4.8-4.8,4.8
	H195.8C193.2,189.4,190.8,187,190.8,184.4z M332.8,53.4c1.2,1.2,1.601,2.6,1.601,4.4c0,1.6-0.601,3.2-1.601,4.4
	c-1.2,1.2-2.6,1.6-4.399,1.6c-1.601,0-3.2-0.6-4.4-1.6s-1.6-2.6-1.6-4.4c0-1.6,0.6-3.2,1.6-4.4c1.2-1.2,2.6-1.6,4.4-1.6
	C330,51.8,331.6,52.4,332.8,53.4z M190.8,166.4c0-2.601,2.2-4.801,4.8-4.801h108.6c2.6,0,4.8,2.2,4.8,4.801c0,2.6-2.2,4.8-4.8,4.8
	H195.8C193.2,171.2,190.8,169,190.8,166.4z"/>
</svg>
