<?xml version="1.0" encoding="utf-8"?>
<!-- Generator: Adobe Illustrator 16.0.4, SVG Export Plug-In . SVG Version: 6.00 Build 0)  -->
<!DOCTYPE svg PUBLIC "-//W3C//DTD SVG 1.1//EN" "http://www.w3.org/Graphics/SVG/1.1/DTD/svg11.dtd">
<svg version="1.1" id="Layer_1" xmlns="http://www.w3.org/2000/svg" xmlns:xlink="http://www.w3.org/1999/xlink" x="0px" y="0px"
	 width="500px" height="250px" viewBox="0 0 500 250" enable-background="new 0 0 500 250" xml:space="preserve">
<path fill="#FFFFFF" d="M289.293,51.338l-53.081-16.136c-1.464-0.429-3.03-0.228-4.318,0.581l-24.571,15.631
	c-3.459,1.616-5.858,5.126-5.858,9.167v78.005c0,5.277,4.065,9.621,9.217,10.102l53.863,16.338h0.783
	c5.581,0,10.127-4.545,10.127-10.127V76.894c0-5.278-4.066-9.622-9.218-10.101l-43.106-13.106l12.349-7.854l51.389,15.656
	c0.404,0.126,0.808,0.202,1.236,0.228v77.727c0,2.879,2.324,5.202,5.203,5.202s5.201-2.323,5.201-5.202v-78.03
	C298.51,56.136,294.444,51.793,289.293,51.338z M211.894,138.309V61.187l11.389,3.459c0,0.05,0,0.101,0,0.151v76.818l-10.909-3.308
	H211.894L211.894,138.309z M265.025,77.197v77.096l-31.313-9.521V67.828l30.833,9.369H265.025z"/>
</svg>
