<?xml version="1.0" encoding="utf-8"?>
<!-- Generator: Adobe Illustrator 16.0.4, SVG Export Plug-In . SVG Version: 6.00 Build 0)  -->
<!DOCTYPE svg PUBLIC "-//W3C//DTD SVG 1.1//EN" "http://www.w3.org/Graphics/SVG/1.1/DTD/svg11.dtd">
<svg version="1.1" id="Layer_1" xmlns="http://www.w3.org/2000/svg" xmlns:xlink="http://www.w3.org/1999/xlink" x="0px" y="0px"
	 width="500px" height="250px" viewBox="0 0 500 250" enable-background="new 0 0 500 250" xml:space="preserve">
<path fill="#FFFFFF" d="M267.6,59c0-9.8-8-17.6-17.6-17.6c-9.6,0-17.6,8-17.6,17.6s8,17.6,17.6,17.6C259.6,76.6,267.6,68.8,267.6,59
	z M250,66.6c-4.2,0-7.6-3.4-7.6-7.6s3.4-7.6,7.6-7.6s7.6,3.4,7.6,7.6S254.2,66.6,250,66.6z M320.4,46.6V39H318v13.8c0,2.8-2.2,5-5,5
	s-5-2.2-5-5V39h-3.4L299.2,66.4c-0.2,1-0.601,1.8-1.4,2.6l-18,18L268,122.4l12.4,61.6c0.6,2.8-1.2,5.4-4,6c-0.4,0-0.601,0.2-1,0.2
	c-2.4,0-4.4-1.601-5-4l-12.601-63c-0.2-0.8-0.2-1.8,0.2-2.6l12.6-37.8c0.2-0.8,0.601-1.4,1.2-2L289.6,63l4.801-24H250h-44.2l4.8,24
	l17.8,17.8c0.6,0.6,1,1.2,1.2,2l12.6,37.8c0.2,0.8,0.4,1.8,0.2,2.6L229.8,186c-0.4,2.4-2.6,4-5,4c-0.4,0-0.6,0-1-0.2
	c-2.8-0.6-4.4-3.2-4-6l12.4-61.6l-11.8-35.4l-18-18c-0.8-0.8-1.2-1.6-1.4-2.6l-5.4-27.4H192v13.8c0,2.8-2.2,5-5,5s-5-2-5-4.8V39
	h-2.6v7.6c0,2.8-2.2,5-5,5c-2.8,0-5-2.2-5-5V21.4c0-2.8,2.2-5,5-5c2.8,0,5,2.2,5,5V29h2.6V15c0-2.8,2.2-5,5-5s5,2.2,5,5v13.8h7.6
	l0,0H250h50.2l0,0h7.8V15c0-2.8,2.2-5,5-5s5,2.2,5,5v13.8h2.6v-7.6c0-2.8,2.2-5,5-5c2.801,0,5,2.2,5,5v25.2c0,2.8-2.199,5-5,5
	C322.8,51.6,320.4,49.2,320.4,46.6z"/>
</svg>
