<?xml version="1.0" encoding="utf-8"?>
<!-- Generator: Adobe Illustrator 16.0.4, SVG Export Plug-In . SVG Version: 6.00 Build 0)  -->
<!DOCTYPE svg PUBLIC "-//W3C//DTD SVG 1.1//EN" "http://www.w3.org/Graphics/SVG/1.1/DTD/svg11.dtd">
<svg version="1.1" id="Layer_1" xmlns="http://www.w3.org/2000/svg" xmlns:xlink="http://www.w3.org/1999/xlink" x="0px" y="0px"
	 width="500px" height="250px" viewBox="0 0 500 250" enable-background="new 0 0 500 250" xml:space="preserve">
<path fill="#FFFFFF" d="M317.5,103.75c-2.762,0-5-2.238-5-5s2.238-5,5-5H330c2.762,0,5,2.238,5,5s-2.238,5-5,5H317.5z
	 M353.75,198.75V117.5c0-2.762-2.238-5-5-5H280c-19.99,0-36.25,16.262-36.25,36.25S260.01,185,280,185
	c19.891,0,36.092-16.102,36.248-35.958c0.006-0.097,0.01-0.194,0.01-0.292c0-4.77-0.928-9.438-2.768-13.874
	c-1.057-2.552-3.979-3.765-6.536-2.708c-2.548,1.059-3.763,3.982-2.706,6.536c1.3,3.136,1.977,6.43,2.006,9.792
	c-0.004,0.084-0.006,0.17-0.006,0.252c0,14.475-11.775,26.25-26.25,26.25s-26.25-11.775-26.25-26.25S265.525,122.5,280,122.5h63.75
	v71.25h-127.5V122.5h26.25c1.756,0,3.384-0.92,4.288-2.428L264.08,91.25h34.668c2.762,0,5-2.238,5-5s-2.238-5-5-5h-37.5
	c-1.756,0-3.385,0.92-4.288,2.428L239.668,112.5H211.25c-2.762,0-5,2.238-5,5v81.25c0,2.762,2.238,5,5,5h137.5
	C351.512,203.75,353.75,201.512,353.75,198.75z M275.576,144.324c-1.164,1.164-1.826,2.775-1.826,4.426
	c0,1.648,0.662,3.262,1.826,4.412C276.738,154.338,278.35,155,280,155c1.648,0,3.262-0.662,4.412-1.838
	c1.176-1.15,1.838-2.764,1.838-4.412c0-1.65-0.662-3.262-1.838-4.426c-1.15-1.162-2.764-1.824-4.412-1.824
	C278.35,142.5,276.738,143.162,275.576,144.324z"/>
</svg>
