<?xml version="1.0" encoding="utf-8"?>
<!-- Generator: Adobe Illustrator 16.0.4, SVG Export Plug-In . SVG Version: 6.00 Build 0)  -->
<!DOCTYPE svg PUBLIC "-//W3C//DTD SVG 1.1//EN" "http://www.w3.org/Graphics/SVG/1.1/DTD/svg11.dtd">
<svg version="1.1" id="Layer_1" xmlns="http://www.w3.org/2000/svg" xmlns:xlink="http://www.w3.org/1999/xlink" x="0px" y="0px"
	 width="500px" height="250px" viewBox="0 0 500 250" enable-background="new 0 0 500 250" xml:space="preserve">
<path fill="#FFFFFF" d="M283.2,16.2c-2.2-1.8-5.2-1.4-7,0.6l-115,135c-1.6,2-1.6,5,0.2,6.8l5,5c1,1,2.2,1.4,3.6,1.4h0.2
	c1.4,0,2.8-0.8,3.6-2l110-140C285.6,21,285.2,17.8,283.2,16.2z"/>
<path fill="#FFFFFF" d="M327,66L187,176c-1.2,0.8-1.8,2.2-2,3.6c0,1.4,0.4,2.801,1.4,3.801l5,5c1,1,2.2,1.399,3.6,1.399
	c1.2,0,2.4-0.399,3.2-1.2l135-115c2-1.8,2.399-4.8,0.6-7C332.2,64.8,329,64.4,327,66z"/>
<path fill="#FFFFFF" d="M321.4,14.4C318.6,11.6,314.8,10,310.8,10s-7.8,1.6-10.6,4.4L286,28.6c-5.8,5.8-5.8,15.4,0,21.2L300.2,64
	c2.8,2.8,6.6,4.4,10.6,4.4s7.8-1.6,10.601-4.4L335.6,49.8c5.801-5.8,5.801-15.4,0-21.2L321.4,14.4z M328.6,42.6L314.4,56.8
	c-1.801,1.8-5.2,1.8-7,0l-14.2-14.2c-2-2-2-5.2,0-7l14.2-14.2c1-1,2.199-1.4,3.6-1.4s2.6,0.6,3.6,1.4l14.2,14.2
	C330.4,37.6,330.4,40.8,328.6,42.6z"/>
<rect x="305.97" y="34.131" transform="matrix(0.7071 0.7071 -0.7071 0.7071 118.7424 -208.4208)" fill="#FFFFFF" width="10" height="10"/>
</svg>
