<?xml version="1.0" encoding="utf-8"?>
<!-- Generator: Adobe Illustrator 16.0.4, SVG Export Plug-In . SVG Version: 6.00 Build 0)  -->
<!DOCTYPE svg PUBLIC "-//W3C//DTD SVG 1.1//EN" "http://www.w3.org/Graphics/SVG/1.1/DTD/svg11.dtd">
<svg version="1.1" id="Layer_1" xmlns="http://www.w3.org/2000/svg" xmlns:xlink="http://www.w3.org/1999/xlink" x="0px" y="0px"
	 width="500px" height="250px" viewBox="0 0 500 250" enable-background="new 0 0 500 250" xml:space="preserve">
<path fill="#FFFFFF" d="M296.4,29.4C278,29.4,262.8,44.4,262.8,63s15,33.6,33.601,33.6c18.399,0,33.6-15,33.6-33.6
	S314.8,29.4,296.4,29.4z M296.4,87.2C283,87.2,272,76.4,272,62.8c0-13.6,10.8-24.4,24.4-24.4c13.399,0,24.399,10.8,24.399,24.4
	C320.8,76.4,309.6,87.2,296.4,87.2z M174.8,168.2h17.8l-3.8-3.8c-1.8-1.801-1.8-4.801,0-6.601l8.4-8.399l-2.4-2.4
	c-1.8-1.8-1.8-4.6-0.2-6.4l57.8-63.8c1.8-2,4.6-2,6.6-0.4c2,1.8,2,4.6,0.4,6.6l-55,60.6l5.6,5.601l66.2-49.8c2.2-1.6,5-1,6.6,0.8
	c1.601,2.2,1,5-0.8,6.6l-69.8,52.4c-0.8,0.6-1.8,0.8-2.8,0.8c-1.2,0-2.4-0.6-3.2-1.4l-2.4-2.399l-5,5l8.4,8.399c1.2,1.2,1.8,3.4,1,5
	c-0.8,1.801-2.4,2.801-4.2,2.801h-29.2c-2.4,0-4.6-2.2-4.6-4.601C170.2,170.4,172.2,168.2,174.8,168.2z M312.6,63
	c0,8.8-7.199,16.2-16.199,16.2c-2.4,0-4.601-2.2-4.601-4.6S294,70,296.4,70c4,0,7-3.2,7-7c0-2.4,2.199-4.6,4.6-4.6
	S312.6,60.2,312.6,63z"/>
</svg>
