<?xml version="1.0" encoding="utf-8"?>
<!-- Generator: Adobe Illustrator 16.0.4, SVG Export Plug-In . SVG Version: 6.00 Build 0)  -->
<!DOCTYPE svg PUBLIC "-//W3C//DTD SVG 1.1//EN" "http://www.w3.org/Graphics/SVG/1.1/DTD/svg11.dtd">
<svg version="1.1" id="Layer_1" xmlns="http://www.w3.org/2000/svg" xmlns:xlink="http://www.w3.org/1999/xlink" x="0px" y="0px"
	 width="500px" height="250px" viewBox="0 0 500 250" enable-background="new 0 0 500 250" xml:space="preserve">
<path fill="#FFFFFF" d="M164.8,183.4c-2.2-2.2-2.2-5.601,0-7.601c2.2-2.2,5.6-2.2,7.6,0c4.6,4.601,8,4.601,12.6,0
	c8.8-8.8,19.2-8.8,28,0c2.4,2.4,4.4,3.4,6.4,3.4s4-1.2,6.4-3.4c8.8-8.8,19.2-8.8,28,0c4.601,4.601,8,4.601,12.601,0
	c8.8-8.8,19.199-8.8,28,0c4.6,4.601,8,4.601,12.6,0c8.8-8.8,19.2-8.8,28,0c2.2,2.2,2.2,5.601,0,7.601c-2.2,2.199-5.6,2.199-7.6,0
	c-4.601-4.601-8-4.601-12.601,0c-4.399,4.399-9.2,6.6-14,6.6s-9.6-2.2-14-6.6C284.4,181,282.4,180,280.4,180s-4,1.2-6.4,3.4
	c-8.8,8.8-19.2,8.8-28,0c-4.6-4.601-8-4.601-12.6,0c-8.8,8.8-19.2,8.8-28,0c-4.6-4.601-8-4.601-12.6,0
	C184,192.2,173.8,192.2,164.8,183.4z M164.8,149.4c8.8,8.8,19.2,8.8,28,0c4.6-4.601,8-4.601,12.6,0c8.8,8.8,19.2,8.8,28,0
	c4.6-4.601,8-4.601,12.6,0c8.8,8.8,19.2,8.8,28,0c2.4-2.4,4.4-3.4,6.4-3.4s4,1.2,6.399,3.4c4.4,4.399,9.2,6.6,14,6.6
	s9.601-2.2,14-6.6c4.601-4.601,8-4.601,12.601,0c2.199,2.199,5.6,2.199,7.6,0c2.2-2.2,2.2-5.601,0-7.601c-8.8-8.8-19.2-8.8-28,0
	c-4.6,4.601-8,4.601-12.6,0c-8.801-8.8-19.2-8.8-28,0c-4.601,4.601-8,4.601-12.601,0c-8.8-8.8-19.2-8.8-28,0
	c-2.4,2.4-4.4,3.4-6.4,3.4s-4-1.2-6.4-3.4c-8.8-8.8-19.2-8.8-28,0c-4.6,4.601-8,4.601-12.6,0c-2.2-2.2-5.6-2.2-7.6,0
	C162.6,143.8,162.6,147.4,164.8,149.4z M206.8,25.4c29.6-14.8,80.4-7,95.4,22.8c1.399,2.6,0.2,6-2.4,7.2l-57.6,28.8l19.2,38.6
	c1.399,2.6,0.199,6-2.4,7.2c-0.8,0.4-1.6,0.6-2.4,0.6c-2,0-4-1-4.8-3L232.6,89l-54.8,27.6c-0.8,0.4-1.6,0.6-2.4,0.6c-2,0-4-1-4.8-3
	c-7-14-6.4-32.4,1.6-50.4C179.6,47,192.6,32.6,206.8,25.4z M182,68.2c-5.8,12.8-7,25.6-3.8,36L289.6,48.4c-15-20.2-54.6-25-78-13.2
	C199.6,41.2,188.6,53.6,182,68.2z M202,21.6c1.2-1.2,2-3,2-4.8c0-1.8-0.8-3.6-2-4.8s-3-2-4.8-2c-1.8,0-3.6,0.8-4.8,2
	c-1.2,1.2-2,3-2,4.8c0,1.8,0.8,3.6,2,4.8c1.2,1.2,3,2,4.8,2C199,23.6,200.6,22.8,202,21.6z"/>
</svg>
