<?xml version="1.0" encoding="utf-8"?>
<!-- Generator: Adobe Illustrator 16.0.4, SVG Export Plug-In . SVG Version: 6.00 Build 0)  -->
<!DOCTYPE svg PUBLIC "-//W3C//DTD SVG 1.1//EN" "http://www.w3.org/Graphics/SVG/1.1/DTD/svg11.dtd">
<svg version="1.1" id="Layer_1" xmlns="http://www.w3.org/2000/svg" xmlns:xlink="http://www.w3.org/1999/xlink" x="0px" y="0px"
	 width="500px" height="250px" viewBox="0 0 500 250" enable-background="new 0 0 500 250" xml:space="preserve">
<path fill="#FFFFFF" d="M217.4,179v-24.6c0-2.4,2-4.601,4.4-4.601h6.8L228.4,76c0-2.4,2-4.6,4.4-4.6h1.2V59c0-4.8,2.2-9.2,5.6-12
	c0.4-3.6,2.4-6.6,5.6-8.2V20c0-2.4,2-4.6,4.4-4.6s4.6,2,4.6,4.4v19c3,1.4,5.2,4.4,5.6,8.2c3.4,2.8,5.601,7.2,5.601,12v12.4h1.199
	c2.4,0,4.601,2,4.601,4.4l0.2,74.2h6.8c2.399,0,4.6,2,4.6,4.4V178.8c0,2.4-2,4.601-4.399,4.601c-2.4,0-4.601-2-4.601-4.4v-20H267
	c-2.4,0-4.6-2-4.6-4.4l-0.2-73.8h-1.4c-2.399,0-4.6-2-4.6-4.4V59.8c0-3.8-3-6.8-6.8-6.8c-3.8,0-6.8,3-6.8,6.8v16.6
	c0,2.4-2,4.6-4.4,4.6H237l0.2,73.8c0,2.4-2,4.601-4.4,4.601H226v20c0,2.399-2,4.6-4.4,4.6C219.6,183.6,217.4,181.4,217.4,179z
	 M172.8,179.2c0,2.399,2,4.399,4.6,4.399s4.4-2,4.4-4.6l-0.2-64.8h13.6l0.2,64.8c0,2.4,2,4.4,4.6,4.4s4.4-2,4.4-4.601l-0.4-87h6.8
	c2.4,0,4.4-2,4.4-4.6c0-2.4-2-4.4-4.6-4.4h-11.2c-2.4,0-4.4,2-4.4,4.6v17.8h-17.8c-2.4,0-4.4,2-4.4,4.6V179.2L172.8,179.2z
	 M322.2,93.6h-17.8V75.8c0-2.4-2-4.4-4.601-4.4h-11.2c-2.399,0-4.399,2-4.399,4.6c0,2.4,2,4.4,4.6,4.4h6.8l0.4,98.4
	c0,2.4,2,4.4,4.6,4.4c2.4,0,4.4-2,4.4-4.601l-0.2-76H318.4l0.199,77.2c0,2.4,2,4.4,4.601,4.4c2.399,0,4.399-2,4.399-4.601L327.4,98
	C326.8,95.8,324.8,93.6,322.2,93.6z"/>
</svg>
