<?xml version="1.0" encoding="utf-8"?>
<!-- Generator: Adobe Illustrator 16.0.4, SVG Export Plug-In . SVG Version: 6.00 Build 0)  -->
<!DOCTYPE svg PUBLIC "-//W3C//DTD SVG 1.1//EN" "http://www.w3.org/Graphics/SVG/1.1/DTD/svg11.dtd">
<svg version="1.1" id="Layer_1" xmlns="http://www.w3.org/2000/svg" xmlns:xlink="http://www.w3.org/1999/xlink" x="0px" y="0px"
	 width="500px" height="250px" viewBox="0 0 500 250" enable-background="new 0 0 500 250" xml:space="preserve">
<path fill="#FFFFFF" d="M328.6,111.4c0,24.4-17.8,33-33,33c-12,0-25.6,0-32.6-14l-5.6-11.4c-2.4-4.8-6-8.8-7.4-8.8
	c-1.4,0.2-5.2,4.6-7.4,8.8l-5.6,11.4c-7,14-20.6,14-32.6,14c-15.2,0-33-8.601-33-33c0-2.6,2-4.6,4.6-4.6s4.6,2,4.6,4.6
	c0,22.2,18.4,24,24,24c12.4,0,20.2-0.4,24.4-8.801l5.6-11.399c1.6-3.2,7.6-14,15.4-14s13.8,10.6,15.4,14L271,126.6
	c4.2,8.4,12,8.801,24.4,8.801c5.6,0,24-1.801,24-24c0-2.6,2-4.6,4.6-4.6S328.6,108.8,328.6,111.4z M304.4,57
	c-0.801-0.8-2-1.4-3.2-1.4h-17c-2.601,0-4.601,2-4.601,4.6c0,2.6,2,4.6,4.601,4.6h15.2L321,86.4c-23.2-4.4-38-1.6-51.4,1
	c-6.8,1.4-13,2.6-19.6,2.6c-6.6,0-13-1.2-19.6-2.6c-13.4-2.6-28.2-5.6-51.4-1l21.6-21.6h15.2c2.6,0,4.6-2,4.6-4.6
	c0-2.6-2-4.6-4.6-4.6h-17c-1.2,0-2.4,0.4-3.2,1.4l-34.2,34c-0.8,0.8-1.4,2-1.4,3.2v0.2c0,1.4,0.6,2.8,1.8,3.6c1.2,0.8,2.6,1.2,4,0.8
	c30.4-8.8,47.6-5.6,62.8-2.6c7.2,1.4,14,2.8,21.4,2.8c7.4,0,14.2-1.4,21.4-2.8c15.199-3,32.399-6.4,62.8,2.6
	C334.6,99,335,99,335.4,99c1,0,2-0.4,2.8-1c1.2-0.8,1.8-2.2,1.8-3.6v-0.2c0-1.2-0.4-2.4-1.4-3.2L304.4,57z"/>
</svg>
