<?xml version="1.0" encoding="utf-8"?>
<!-- Generator: Adobe Illustrator 16.0.4, SVG Export Plug-In . SVG Version: 6.00 Build 0)  -->
<!DOCTYPE svg PUBLIC "-//W3C//DTD SVG 1.1//EN" "http://www.w3.org/Graphics/SVG/1.1/DTD/svg11.dtd">
<svg version="1.1" id="Layer_1" xmlns="http://www.w3.org/2000/svg" xmlns:xlink="http://www.w3.org/1999/xlink" x="0px" y="0px"
	 width="500px" height="250px" viewBox="0 0 500 250" enable-background="new 0 0 500 250" xml:space="preserve">
<path fill="#FFFFFF" d="M139.25,137c-2.25-2.5-2.25-6.25,0-8.5L245.75,22c2.5-2.25,6.25-2.25,8.5,0l106.5,106.5
	c2.5,2.5,2.5,6.25,0,8.5c-1.25,1.25-2.75,1.75-4.25,1.75s-3-0.5-4.25-1.75L250,34.75L148,137C145.5,139.25,141.75,139.25,139.25,137
	z M246.75,198.5c-23.75-15.75-48.25-32.25-48.25-58.25c0-23.5,15.5-35.5,30.75-35.5c7.75,0,15.75,3.25,21,9.75
	c5.25-6.25,13-9.75,21-9.75c15.25,0,30.75,12.25,30.75,35.5c0,26-24.5,42.5-48.25,58.25c-1,0.75-2.25,1-3.25,1
	C248.75,199.5,247.75,199.25,246.75,198.5z M250,186c20-13.25,39.5-27.5,39.5-46c0-16.25-9.25-23.5-18.75-23.5
	c-7.5,0-14.75,5-14.75,15.75c0,3.25-2.75,6-6,6s-6-2.75-6-6c0-11-7.5-15.75-14.75-15.75c-9.25,0-18.75,7.25-18.75,23.5
	C210.5,158.75,230,172.75,250,186z M166.5,141.75c-3.25,0-6,2.75-6,6v76c0,3.25,2.75,6,6,6h167.25c3.25,0,6-2.75,6-6v-76
	c0-3.25-2.75-6-6-6s-6,2.75-6,6v70H172.5v-70C172.5,144.5,169.75,141.75,166.5,141.75z"/>
</svg>
