<?xml version="1.0" encoding="utf-8"?>
<!-- Generator: Adobe Illustrator 16.0.4, SVG Export Plug-In . SVG Version: 6.00 Build 0)  -->
<!DOCTYPE svg PUBLIC "-//W3C//DTD SVG 1.1//EN" "http://www.w3.org/Graphics/SVG/1.1/DTD/svg11.dtd">
<svg version="1.1" id="Layer_1" xmlns="http://www.w3.org/2000/svg" xmlns:xlink="http://www.w3.org/1999/xlink" x="0px" y="0px"
	 width="500px" height="250px" viewBox="0 0 500 250" enable-background="new 0 0 500 250" xml:space="preserve">
<path fill="#FFFFFF" d="M328.4,76.6c-1,1-2.4,1.6-3.801,1.6c-1.399,0-2.8-0.6-3.8-1.6c-2.2-2.2-2.2-5.6,0-7.6
	c11.2-11.2,11.2-28.6,0-39.8C309.6,18,292.2,18,281,29.2c-2.2,2.2-5.6,2.2-7.6,0c-2.2-2.2-2.2-5.6,0-7.6
	C288.8,6.2,313,6.2,328.6,21.6C343.8,36.8,343.8,61,328.4,76.6z M171.6,178.2c7.4,7.399,17.2,11.6,27.6,11.6
	c10.4,0,20.2-4,27.6-11.6c2.2-2.2,2.2-5.601,0-7.601c-2.2-2.199-5.6-2.199-7.6,0c-5.4,5.4-12.4,8.4-19.8,8.4s-14.6-3-19.8-8.4
	c-11.2-11.199-11.2-28.6,0-39.8c2.2-2.2,2.2-5.6,0-7.6c-2.2-2.2-5.6-2.2-7.6,0C156.2,138.6,156.2,162.8,171.6,178.2z M225.8,137.6
	c1,1,2.4,1.601,3.8,1.601s2.8-0.601,3.8-1.601c2.2-2.199,2.2-5.6,0-7.6L220,116.4c-2.2-2.2-5.6-2.2-7.6,0c-2.2,2.2-2.2,5.6,0,7.6
	L225.8,137.6z M209.4,85.4l26.2-26.2l-3-3c-2.2-2.2-2.2-5.6,0-7.6L253,28.2c2.2-2.2,5.6-2.2,7.6,0L274.2,41.8c2.2,2.2,2.2,5.6,0,7.6
	l-20.4,20.4c-1,1-2.399,1.6-3.8,1.6c-1.4,0-2.8-0.6-3.8-1.6l-3-3L217,93l3,3c2.2,2.2,2.2,5.6,0,7.6L199.6,124c-1,1-2.4,1.6-3.8,1.6
	c-1.4,0-2.8-0.6-3.8-1.6l-13.6-13.6c-2.2-2.2-2.2-5.6,0-7.6l20.4-20.4c2.2-2.2,5.6-2.2,7.6,0L209.4,85.4z M244.2,52.4l3,3l0,0l0,0
	l3,3l12.6-12.6L257,40L244.2,52.4z M208.4,99.8l-3-3l0,0l0,0l-3-3l-12.6,12.6l5.8,5.8L208.4,99.8z M225.8,158
	c-2.2-2.2-2.2-5.6,0-7.6l20.4-20.601c2.2-2.2,5.6-2.2,7.6,0l3,3l26.2-26.2l-3-3c-2.2-2.2-2.2-5.6,0-7.6l20.4-20.4
	c2.199-2.2,5.6-2.2,7.6,0l13.6,13.6c2.2,2.2,2.2,5.6,0,7.6L301.2,117.2c-1,1-2.4,1.6-3.8,1.6c-1.4,0-2.801-0.6-3.801-1.6l-3-3
	L264.4,140.4l3,3c2.199,2.199,2.199,5.6,0,7.6L247,171.4c-1,1-2.4,1.6-3.8,1.6c-1.4,0-2.8-0.6-3.8-1.6L225.8,158z M291.6,99.8
	l5.801,5.8L310,93l-5.8-5.8L291.6,99.8z M237.4,154l5.8,5.8l12.6-12.6l-5.8-5.8L237.4,154z M266.6,62.2c-2.199,2.2-2.199,5.6,0,7.6
	L280.2,83.4c1,1,2.399,1.6,3.8,1.6s2.8-0.6,3.8-1.6c2.2-2.2,2.2-5.6,0-7.6l-13.6-13.6C272,60,268.6,60,266.6,62.2z"/>
</svg>
