<?xml version="1.0" encoding="utf-8"?>
<!-- Generator: Adobe Illustrator 16.0.4, SVG Export Plug-In . SVG Version: 6.00 Build 0)  -->
<!DOCTYPE svg PUBLIC "-//W3C//DTD SVG 1.1//EN" "http://www.w3.org/Graphics/SVG/1.1/DTD/svg11.dtd">
<svg version="1.1" id="Layer_1" xmlns="http://www.w3.org/2000/svg" xmlns:xlink="http://www.w3.org/1999/xlink" x="0px" y="0px"
	 width="500px" height="250px" viewBox="0 0 500 250" enable-background="new 0 0 500 250" xml:space="preserve">
<path fill="#FFFFFF" d="M306,134.2l12.8-60.8c0-0.4,0.2-0.8,0.4-1l11-23.4V25.8c0-2.6,2.2-4.8,4.8-4.8s4.8,2.2,4.8,4.8V50
	c0,0.8-0.2,1.4-0.399,2l-11.2,24L315.6,135.8v38.4c0,2.6-2.199,4.8-4.8,4.8c-2.6,0-4.8-2.2-4.8-4.8v-39
	C306,134.8,306,134.4,306,134.2z M181.8,79.4c-0.6-2.6-3.2-4.2-5.8-3.6c-2.6,0.6-4.2,3.2-3.6,5.8l12,54.2v38.4
	c0,2.6,2.2,4.8,4.8,4.8c2.6,0,4.8-2.2,4.8-4.8v-39c0-0.4,0-0.8-0.2-1L181.8,79.4z M160.6,70.4c-1.2-2.4-0.2-5.4,2.2-6.4l22-11
	c-0.2-1-0.2-2-0.2-3c0-9.4,7.6-17,17-17s17,7.6,17,17c0,0.8,0,1.6-0.2,2.6l16.8,5.6c-1.4-2.4-2-5.2-2-8.2c0-9.4,7.6-17,17-17
	c9.399,0,17,7.6,17,17c0,3-0.8,5.8-2,8.2l16.8-5.6c-0.2-0.8-0.2-1.6-0.2-2.6c0-9.4,7.601-17,17-17c9.4,0,17,7.6,17,17s-7.6,17-17,17
	c-5,0-9.6-2.2-12.6-5.6l-34.4,11.4c-0.399,0.2-1,0.2-1.6,0.2c-0.6,0-1,0-1.6-0.2L214,61.6l-0.2,0.2l15.4,15.4l0,0
	c0.2,0.2,0.2,0.4,0.4,0.6l0.2,0.2c0.2,0.2,0.2,0.6,0.4,0.8V79c0,0.2,0.2,0.4,0.2,0.6l12.2,54.8c0,0.399,0.2,0.6,0.2,1v39
	c0,2.6-2.2,4.8-4.8,4.8s-4.8-2.2-4.8-4.8V135.8L226,103l-7.2,32.8v38.4c0,2.6-2.2,4.8-4.8,4.8s-4.8-2.2-4.8-4.8v-39
	c0-0.4,0-0.8,0.2-1l11-52.2L205,66.6c-1.2,0.2-2.4,0.4-3.6,0.4c-4.8,0-9.2-2-12.4-5.4l-22,11c-0.6,0.4-1.4,0.6-2.2,0.6
	C163,73,161.4,72,160.6,70.4z M291.4,50.2c0,4,3.199,7.2,7.199,7.2s7.2-3.2,7.2-7.2s-3.2-7.2-7.2-7.2
	C294.6,42.8,291.4,46.2,291.4,50.2z M242.8,50.2c0,4,3.2,7.2,7.2,7.2s7.2-3.2,7.2-7.2S254,43,250,43C246,42.8,242.8,46.2,242.8,50.2
	z M194,50.2c0,4,3.2,7.2,7.2,7.2s7.2-3.2,7.2-7.2s-3.2-7.2-7.2-7.2S194,46.2,194,50.2z M286.4,178.8c2.6,0,4.8-2.2,4.8-4.8v-38.8
	c0-0.4,0-0.8-0.2-1l-12.2-54.8c-0.399-2.2-2.399-3.8-4.8-3.8s-4.2,1.6-4.8,3.8L257,134.2c0,0.399-0.2,0.8-0.2,1v39
	c0,2.6,2.2,4.8,4.8,4.8c2.601,0,4.801-2.2,4.801-4.8v-38.4L273.6,103l7.2,32.8v38.4C281.6,176.8,283.8,178.8,286.4,178.8z"/>
</svg>
