<?xml version="1.0" encoding="utf-8"?>
<!-- Generator: Adobe Illustrator 16.0.4, SVG Export Plug-In . SVG Version: 6.00 Build 0)  -->
<!DOCTYPE svg PUBLIC "-//W3C//DTD SVG 1.1//EN" "http://www.w3.org/Graphics/SVG/1.1/DTD/svg11.dtd">
<svg version="1.1" id="Layer_1" xmlns="http://www.w3.org/2000/svg" xmlns:xlink="http://www.w3.org/1999/xlink" x="0px" y="0px"
	 width="500px" height="250px" viewBox="0 0 500 250" enable-background="new 0 0 500 250" xml:space="preserve">
<path fill="#FFFFFF" d="M236.25,161.25c1.638,0,3.25,0.662,4.424,1.824c1.164,1.174,1.826,2.787,1.826,4.426
	s-0.662,3.25-1.826,4.426c-1.162,1.162-2.776,1.824-4.424,1.824s-3.262-0.662-4.412-1.824c-1.176-1.176-1.838-2.787-1.838-4.426
	c0-1.65,0.662-3.262,1.838-4.426C233,161.912,234.6,161.25,236.25,161.25z M255,148.75c0-1.65-0.662-3.252-1.826-4.426
	c-1.174-1.162-2.774-1.824-4.424-1.824s-3.262,0.662-4.424,1.824c-1.164,1.174-1.826,2.775-1.826,4.426
	c0,1.648,0.662,3.262,1.826,4.412c1.174,1.176,2.788,1.838,4.424,1.838c1.636,0,3.25-0.662,4.424-1.838
	C254.338,152.012,255,150.398,255,148.75z M255,186.25c1.65,0,3.25-0.662,4.412-1.824c1.176-1.176,1.838-2.787,1.838-4.426
	s-0.662-3.252-1.838-4.426c-1.162-1.162-2.773-1.824-4.412-1.824c-1.65,0-3.25,0.662-4.424,1.824
	c-1.164,1.174-1.826,2.787-1.826,4.426s0.662,3.25,1.826,4.426C251.738,185.588,253.35,186.25,255,186.25z M340.988,69.012
	c-1.954-1.954-5.12-1.954-7.07,0c-1.954,1.952-1.954,5.12,0,7.07c29.73,29.73,29.73,78.105,0,107.836
	c-29.729,29.729-78.104,29.729-107.834,0c-29.73-29.73-29.73-78.104,0-107.836c1.952-1.952,1.952-5.118,0-7.07
	c-1.954-1.954-5.12-1.954-7.072,0C202.722,85.302,193.75,106.96,193.75,130s8.972,44.698,25.262,60.988
	c7.588,7.588,16.258,13.449,25.512,17.613c-0.482,0.771-0.774,1.672-0.774,2.648c0,2.762,2.238,5,5,5h62.5c2.762,0,5-2.238,5-5
	c0-0.977-0.292-1.878-0.775-2.648c9.254-4.164,17.922-10.025,25.514-17.613c16.289-16.293,25.262-37.95,25.262-60.988
	S357.277,85.302,340.988,69.012z M328.75,136.25c0,4.136,3.363,7.5,7.5,7.5c2.762,0,5,2.238,5,5s-2.238,5-5,5
	c-6.872,0-12.812-3.988-15.674-9.766l-25.502,15.302c-0.801,0.479-1.69,0.712-2.572,0.712c-1.294,0-2.576-0.5-3.54-1.464
	l-18.75-18.75c-1.954-1.954-1.954-5.12,0-7.07l18.75-18.75c1.626-1.624,4.142-1.934,6.112-0.752l25.502,15.302
	c2.861-5.776,8.802-9.764,15.674-9.764c2.762,0,5,2.238,5,5c0,2.762-2.238,5-5,5C332.113,128.75,328.75,132.114,328.75,136.25z
	 M314.034,136.25l-20.759-12.454l-12.453,12.454l12.453,12.454L314.034,136.25z M223.75,135c2.762,0,5-2.238,5-5
	c0-13.69,5.332-26.558,15.01-36.24c1.952-1.954,1.952-5.118,0-7.07c-1.952-1.954-5.118-1.954-7.072,0
	C225.122,98.258,218.75,113.64,218.75,130C218.75,132.762,220.988,135,223.75,135z"/>
</svg>
