<?xml version="1.0" encoding="utf-8"?>
<!-- Generator: Adobe Illustrator 16.0.4, SVG Export Plug-In . SVG Version: 6.00 Build 0)  -->
<!DOCTYPE svg PUBLIC "-//W3C//DTD SVG 1.1//EN" "http://www.w3.org/Graphics/SVG/1.1/DTD/svg11.dtd">
<svg version="1.1" id="Layer_1" xmlns="http://www.w3.org/2000/svg" xmlns:xlink="http://www.w3.org/1999/xlink" x="0px" y="0px"
	 width="500px" height="250px" viewBox="0 0 500 250" enable-background="new 0 0 500 250" xml:space="preserve">
<path fill="#FFFFFF" d="M292.8,128.2v23.2L298,182.8c0.4,2.601-1.4,5-3.8,5.4c-0.2,0-0.601,0-0.8,0c-2.2,0-4.2-1.601-4.601-4
	l-5.2-31.8c0-0.2,0-0.601,0-0.801V130.4L256.8,109l-45-11.2l-26,5.2L170,139.8l16.6,33.4c1.2,2.399,0.2,5.2-2.2,6.399
	c-2.4,1.2-5.2,0.2-6.4-2.199l-17.6-35.2c-0.6-1.2-0.6-2.601-0.2-4L177.8,97c0.6-1.4,1.8-2.4,3.4-2.8l29.4-5.8c0.6-0.2,1.4-0.2,2,0
	l47,11.8c0.601,0.2,1.2,0.4,1.801,0.8l29.399,23.6C292,125.4,292.8,126.8,292.8,128.2z M229,188.2c2.6,0.6,5-1.2,5.6-3.601l4.4-22
	h21.6l4.4,22c0.4,2.2,2.4,3.801,4.6,3.801c0.4,0,0.601,0,1,0c2.601-0.601,4.2-3,3.601-5.601L269,157c-0.4-2.2-2.4-3.8-4.6-3.8H235
	c-2.2,0-4.2,1.6-4.6,3.8l-5.2,25.8C224.8,185.2,226.4,187.6,229,188.2z M212.8,156.8l-5.2,25.8c-0.6,2.601,1.2,5,3.6,5.601
	c0.4,0,0.6,0,1,0c2.2,0,4.2-1.601,4.6-3.8L222,158.6c0.6-2.6-1.2-5-3.6-5.6C215.8,152.6,213.4,154.2,212.8,156.8z M194,141.2
	c-2.6,0-4.8,2.2-4.8,4.8s2.2,4.8,4.8,4.8h17.6c1.8,0,3.4-1,4.2-2.6l11.8-23.6c1-1.8,0.6-4-0.8-5.4L215,107.4c-1.8-1.8-4.8-1.8-6.6,0
	c-1.8,1.8-1.8,4.8,0,6.6l9.4,9.4l-9,17.8H194z M306.2,188.2c2.2,0,4.2-1.601,4.6-3.8l11.4-61.2c0-0.2,0-0.6,0-0.8V51.8
	c0-2.6-2.2-4.8-4.8-4.8c-2.601,0-4.801,2.2-4.801,4.8V122L301.4,182.8c-0.4,2.601,1.199,5,3.8,5.4
	C305.6,188.2,305.8,188.2,306.2,188.2z M339.4,36.2c1.199-2.4,0.199-5.2-2.2-6.4l-22.8-11.4L309,13c-1.8-1.8-4.8-1.8-6.6,0
	c-1.801,1.8-1.801,4.8,0,6.6l3.199,3.2L296,37.2c-0.4,0.6-0.6,1.4-0.8,2.2L289.6,95.6l-9.399,4.8c-2.4,1.2-3.2,4-2.2,6.4
	c0.8,1.6,2.4,2.6,4.2,2.6c0.8,0,1.399-0.2,2.2-0.4l11.8-5.8h0.2c0.199,0,0.399-0.2,0.399-0.2c0.2,0,0.2-0.2,0.4-0.2
	c0.2-0.2,0.2-0.2,0.399-0.4l0.2-0.2c0.2-0.2,0.2-0.2,0.2-0.4c0-0.2,0.2-0.2,0.2-0.4c0-0.2,0.2-0.4,0.2-0.4c0-0.2,0-0.2,0.199-0.4
	c0-0.2,0-0.4,0.2-0.4c0-0.2,0-0.2,0-0.4l0,0l5.8-57.6L313.4,29l19.8,10C335.4,39.4,338.2,38.6,339.4,36.2z"/>
</svg>
