<?xml version="1.0" encoding="utf-8"?>
<!-- Generator: Adobe Illustrator 16.0.4, SVG Export Plug-In . SVG Version: 6.00 Build 0)  -->
<!DOCTYPE svg PUBLIC "-//W3C//DTD SVG 1.1//EN" "http://www.w3.org/Graphics/SVG/1.1/DTD/svg11.dtd">
<svg version="1.1" id="Layer_1" xmlns="http://www.w3.org/2000/svg" xmlns:xlink="http://www.w3.org/1999/xlink" x="0px" y="0px"
	 width="500px" height="250px" viewBox="0 0 500 250" enable-background="new 0 0 500 250" xml:space="preserve">
<path fill="#FFFFFF" d="M224,237.5c-3.75,0-6.75-2.75-6.75-6.5v-68.75c0-0.5,0-1,0.25-1.25l8.75-40.75c0.75-3.5,4.5-6,8.25-5.25
	s6.25,4.25,5.5,7.75L231.5,163v68C230.75,234.75,227.75,237.5,224,237.5z M284.25,237.5c0.25,0,0.5,0,0.75,0
	c3.75-0.5,6.5-3.5,6.25-7.25l-8-68.75c-0.5-3.5-3.75-6.25-7.5-5.75s-6.5,3.5-6.25,7.25l8,68.75
	C277.5,235.25,280.75,237.5,284.25,237.5z M168.75,74.75L190,64.5c-4.75-4.25-7.75-10.25-7.75-16.75c0-12.5,10.75-23,24.25-23
	s24.25,10.25,24.25,23c0,6.5-3,12.5-7.75,16.75l21.25,10.25c2,1,3.25,2.5,3.75,4.5l10.75,49.5l10.75-49.5c0.25-1.25,1-2.25,2-3.25
	l9.25-8.75c-6.75-4-11.25-11-11.25-19.25c0-12.5,10.75-23,24.25-23S318,35.25,318,48c0,8-4.5,15.25-11.25,19.25L316,76
	c1,1,1.75,2.25,2,3.25L335.5,161c0.5,2,0,4-1.5,5.5s-3.25,2.25-5.5,2.25h-11l-7.25,62.75c-1,3.5-3.75,6-7.25,6c-0.25,0-0.5,0-0.75,0
	c-3.75-0.5-6.5-3.5-6.25-7.25l8-68.75c0.5-3.25,3.25-6,6.75-6H320l-15.5-71.75l-10.75-10.5l-11.25,10.5l-17,79.75
	c-0.75,3-3.5,5.25-6.75,5.25s-6.25-2.25-6.75-5.25l-17-78.75l-28.5-13.5L179.5,84l16.25,76.75c0,0.5,0.25,1,0.25,1.25v68.75
	c0,3.5-3,6.5-6.75,6.5s-6.75-2.5-6.75-6.25v-68.25l-17.5-81C164.5,79,165.75,76,168.75,74.75z M283,47.75c0,5.5,4.75,10,10.5,10
	s10.5-4.5,10.5-10s-4.75-10-10.5-10C287.5,37.75,283,42.25,283,47.75z M196,47.75c0,5.5,4.75,10,10.5,10l0,0
	c5.75,0,10.5-4.5,10.5-10s-4.75-10-10.5-10S196,42.25,196,47.75z"/>
</svg>
