<?xml version="1.0" encoding="utf-8"?>
<!-- Generator: Adobe Illustrator 16.0.4, SVG Export Plug-In . SVG Version: 6.00 Build 0)  -->
<!DOCTYPE svg PUBLIC "-//W3C//DTD SVG 1.1//EN" "http://www.w3.org/Graphics/SVG/1.1/DTD/svg11.dtd">
<svg version="1.1" id="Layer_1" xmlns="http://www.w3.org/2000/svg" xmlns:xlink="http://www.w3.org/1999/xlink" x="0px" y="0px"
	 width="500px" height="250px" viewBox="0 0 500 250" enable-background="new 0 0 500 250" xml:space="preserve">
<path fill="#FFFFFF" d="M223.2,107C223.2,107,223,107,223.2,107c-0.4,0.4-0.6,0.4-0.8,0.6l-0.2,0.2c0,0.2,0,0.2-0.2,0.4l-0.2,0.2
	c-0.2,0.2-0.2,0.4-0.4,0.6l-0.2,0.2c0,0,0,0,0,0.2l-17.8,35.4l-23.2,11.4c-2.4,1.2-3.4,4.2-2.2,6.6c1.2,2.4,4.2,3.4,6.6,2.2
	l24.4-12.2c1-0.6,1.6-1.399,2.2-2.2L224,125l8.8,31c0.6,2,2.6,3.6,4.8,3.6c0.4,0,1,0,1.4-0.199c2.6-0.801,4.2-3.4,3.4-6l-11.2-39
	l18.6-9.4l18.601,9.4l-11.2,39c-0.8,2.6,0.8,5.199,3.399,6c0.4,0.199,1,0.199,1.4,0.199c2,0,4.2-1.399,4.8-3.6l8.8-31l12.801,25.6
	c0.6,1,1.399,1.601,2.199,2.2L315,165c0.8,0.4,1.6,0.6,2.2,0.6c1.8,0,3.6-1,4.399-2.6c1.2-2.4,0.2-5.4-2.199-6.6L296.2,145
	l-17.8-35.4c0,0,0,0,0-0.2l-0.2-0.2c-0.2-0.2-0.2-0.4-0.4-0.6l0.2-0.2c-0.2-0.2-0.2-0.2-0.4-0.4l-0.199-0.2
	c-0.2-0.2-0.4-0.2-0.601-0.4c0,0-0.2,0-0.2-0.2l0,0l-15-7.6C265,96.4,267,92,267,87c0-9.4-7.8-17.2-17.2-17.2
	c-9.4,0-17.2,7.8-17.2,17.2c0,4.8,2,9.4,5.4,12.6L223.2,107L223.2,107z M250,79.4c4.2,0,7.4,3.4,7.4,7.4c0,4.2-3.4,7.4-7.4,7.4l0,0
	c-4.2,0-7.4-3.4-7.4-7.4S245.8,79.4,250,79.4z M171.4,99c0-43.4,35.2-78.6,78.6-78.6c43.4,0,78.6,35.2,78.6,78.6
	c0,2.6-2.199,4.8-4.8,4.8c-2.6,0-4.8-2.2-4.8-4.8c0-37.8-31-68.8-68.8-68.8c-37.8,0-69,31-69,68.8c0,2.6-2.2,4.8-4.8,4.8
	S171.4,102,171.4,99z M312.4,177.6L251,189.8l0,0c-0.4,0-0.6,0-1,0l0,0l0,0c-0.4,0-0.6,0-1,0l0,0l-61.4-12.2
	c-2.6-0.6-4.4-3.199-3.8-5.8c0.6-2.6,3.2-4.399,5.8-3.8l60.4,12l60.4-12c2.6-0.6,5.199,1.2,5.8,3.8C316.8,174.6,315,177,312.4,177.6
	z"/>
</svg>
