<?xml version="1.0" encoding="utf-8"?>
<!-- Generator: Adobe Illustrator 16.0.4, SVG Export Plug-In . SVG Version: 6.00 Build 0)  -->
<!DOCTYPE svg PUBLIC "-//W3C//DTD SVG 1.1//EN" "http://www.w3.org/Graphics/SVG/1.1/DTD/svg11.dtd">
<svg version="1.1" id="Layer_1" xmlns="http://www.w3.org/2000/svg" xmlns:xlink="http://www.w3.org/1999/xlink" x="0px" y="0px"
	 width="500px" height="250px" viewBox="0 0 500 250" enable-background="new 0 0 500 250" xml:space="preserve">
<path fill="#FFFFFF" d="M280,43.75c-47.558,0-86.25,38.692-86.25,86.25c0,28.088,13.504,53.076,34.35,68.836l-8.094,12.141
	c-1.532,2.295-0.912,5.399,1.386,6.934c0.852,0.568,1.814,0.84,2.768,0.84c1.616,0,3.204-0.782,4.166-2.227l8.092-12.137
	c12.8,7.527,27.691,11.865,43.582,11.865c15.92,0,30.838-4.354,43.654-11.906l8.486,12.254c0.967,1.4,2.527,2.154,4.113,2.154
	c0.982,0,1.975-0.288,2.844-0.891c2.269-1.571,2.834-4.686,1.262-6.955l-8.392-12.122c20.808-15.765,34.284-40.728,34.284-68.786
	C366.25,82.442,327.559,43.75,280,43.75z M280,206.25c-42.042,0-76.25-34.204-76.25-76.25c0-42.044,34.206-76.25,76.25-76.25
	c42.046,0,76.25,34.206,76.25,76.25C356.25,172.046,322.046,206.25,280,206.25z M346.036,146.036l-10.214,10.214h6.68
	c2.762,0,5,2.238,5,5s-2.238,5-5,5h-9.41l-4.867,9.736c-0.877,1.75-2.643,2.766-4.477,2.766c-0.754,0-1.516-0.17-2.232-0.529
	c-0.76-0.381-1.359-0.94-1.82-1.586c-4.743,4.041-10.037,7.315-15.748,9.745l3.293,1.642c2.47,1.236,3.468,4.24,2.236,6.709
	c-0.877,1.752-2.643,2.766-4.477,2.766c-0.754,0-1.516-0.172-2.232-0.53l-12.5-6.25c-0.154-0.077-0.285-0.182-0.428-0.272
	c-2.542,0.41-5.117,0.662-7.716,0.75l-4.834,4.834c-0.976,0.979-2.256,1.467-3.536,1.467c-1.279,0-2.561-0.488-3.536-1.464
	c-1.918-1.919-1.942-5.005-0.086-6.962c-8.176-3.758-13.878-12.004-13.878-21.572c0-13.096,10.654-23.75,23.75-23.75
	c1.82,0,3.592-0.35,5.264-1.042c1.36-0.562,2.619-1.343,3.738-2.313c1.378-1.197,2.486-2.623,3.299-4.24
	c1.237-2.469,4.243-3.465,6.709-2.227c2.471,1.238,3.465,4.244,2.227,6.71c-1.4,2.792-3.312,5.255-5.684,7.31
	c-1.935,1.679-4.108,3.022-6.463,3.998c-2.892,1.201-5.949,1.805-9.092,1.805c-7.582,0-13.75,6.17-13.75,13.75
	s6.168,13.75,13.75,13.75c0.002,0,0.006,0,0.008,0c6.784,0,13.379-1.309,19.61-3.887c5.075-2.105,9.767-5.008,13.94-8.627
	c4.647-4.032,8.676-9.406,11.972-15.977c0.237-0.476,0.554-0.912,0.934-1.292l11.036-11.038v-13.076l-21.775-7.258l-7.19,7.19
	c-1.952,1.954-5.12,1.954-7.07,0l-6.25-6.25c-1.954-1.952-1.954-5.12,0-7.07c1.952-1.954,5.12-1.954,7.07,0l2.714,2.714l5.84-5.838
	c1.336-1.338,3.318-1.808,5.118-1.208l28.126,9.376c2.042,0.682,3.418,2.592,3.418,4.744v18.75
	C347.5,143.826,346.973,145.098,346.036,146.036z"/>
</svg>
