<?xml version="1.0" encoding="utf-8"?>
<!-- Generator: Adobe Illustrator 16.0.4, SVG Export Plug-In . SVG Version: 6.00 Build 0)  -->
<!DOCTYPE svg PUBLIC "-//W3C//DTD SVG 1.1//EN" "http://www.w3.org/Graphics/SVG/1.1/DTD/svg11.dtd">
<svg version="1.1" id="Layer_1" xmlns="http://www.w3.org/2000/svg" xmlns:xlink="http://www.w3.org/1999/xlink" x="0px" y="0px"
	 width="500px" height="250px" viewBox="0 0 500 250" enable-background="new 0 0 500 250" xml:space="preserve">
<path fill="#FFFFFF" d="M200.6,58.8c6.6-6.6,14.2-11.6,22.6-15.2c2.4-1,5.2,0.2,6.2,2.6c1,2.4-0.2,5.2-2.6,6.2
	c-7.4,3-14,7.4-19.6,13.2c-23.6,23.6-23.6,61.8,0,85.4c11.4,11.4,26.6,17.6,42.8,17.6s31.2-6.199,42.8-17.6
	c11.4-11.4,17.601-26.6,17.601-42.8c0-16.2-6.2-31.2-17.601-42.8c-5.6-5.6-12.2-10-19.6-13.2c-2.4-1-3.601-3.8-2.601-6.2
	s3.801-3.6,6.2-2.6C285.2,47,293,52,299.4,58.6C312.6,71.8,319.8,89.4,319.8,108c0,18.6-7.2,36.2-20.399,49.4
	C286.2,170.6,268.6,177.8,250,177.8c-18.6,0-36.2-7.2-49.4-20.399C173.4,130.4,173.4,86.2,200.6,58.8z M250,49
	c2.6,0,4.8-2.2,4.8-4.8V14.8c0-2.6-2.2-4.8-4.8-4.8c-2.6,0-4.8,2.2-4.8,4.8v29.6C245.2,47,247.4,49,250,49z M192.4,45.2
	c0.8,1.6,2.6,2.6,4.2,2.6c0.8,0,1.4-0.2,2.2-0.6c2.4-1.2,3.2-4,2.2-6.4L195,29c-1.2-2.4-4-3.2-6.4-2.2c-2.4,1.2-3.2,4-2.2,6.4
	L192.4,45.2z M168.8,47c-1.2,2.4-0.2,5.2,2.2,6.4l11.8,6c0.6,0.4,1.4,0.6,2.2,0.6c1.8,0,3.4-1,4.2-2.6c1.2-2.4,0.2-5.2-2.2-6.4
	l-11.8-6C172.8,43.6,170,44.6,168.8,47z M305,187.4c0.8,1.6,2.6,2.6,4.2,2.6c0.8,0,1.399-0.2,2.2-0.6c2.399-1.2,3.199-4,2.199-6.4
	l-6-11.8c-1.199-2.4-4-3.2-6.399-2.2c-2.4,1.2-3.2,4-2.2,6.4L305,187.4z M327,172.2c1.8,0,3.4-1,4.2-2.601
	c1.2-2.399,0.2-5.199-2.2-6.399l-11.8-6c-2.4-1.2-5.2-0.2-6.4,2.2c-1.2,2.399-0.2,5.199,2.2,6.399l11.8,6
	C325.6,172,326.2,172.2,327,172.2z M230.6,69c-0.6,1.4-1.2,2.6-1.8,4c5.4-1,11-1.6,16.6-2v-9c0-2.6,2.2-4.8,4.8-4.8
	c2.6,0,4.8,2.2,4.8,4.8v9c5.6,0.2,11.2,0.8,16.6,2c-0.6-1.4-1.199-2.8-1.8-4c-1.2-2.4-0.2-5.2,2.2-6.4c2.4-1.2,5.2-0.2,6.4,2.2
	c1.8,3.4,3.199,7.2,4.399,11.2c4,1.2,7.601,2.8,11.2,4.4c2.4,1.2,3.2,4,2.2,6.4c-0.8,1.6-2.601,2.6-4.2,2.6c-0.8,0-1.4-0.2-2.2-0.6
	c-1.399-0.6-2.6-1.2-4-1.8c1.2,5.8,1.8,11.8,2,17.8H298c2.6,0,4.8,2.2,4.8,4.8s-2.2,4.8-4.8,4.8h-10.2c-0.2,5.2-0.8,10.4-1.8,15.4
	c1.4-0.6,2.8-1.2,4-1.8c2.4-1.2,5.2-0.2,6.4,2.2c1.199,2.399,0.199,5.2-2.2,6.399c-3.4,1.801-7.2,3.2-11.2,4.4
	c-1.2,4-2.8,7.6-4.4,11.2c-0.8,1.6-2.6,2.6-4.199,2.6c-0.801,0-1.4-0.2-2.2-0.6c-2.4-1.2-3.2-4-2.2-6.4c0.6-1.399,1.2-2.6,1.8-4
	c-5.399,1-11,1.601-16.6,2v11.4c0,2.6-2.2,4.8-4.8,4.8s-4.8-2.2-4.8-4.8v-11.4c-5.6-0.2-11.2-0.8-16.6-2c0.6,1.4,1.2,2.8,1.8,4
	c1.2,2.4,0.2,5.2-2.2,6.4c-0.6,0.399-1.4,0.6-2.2,0.6c-1.8,0-3.4-1-4.2-2.6c-1.8-3.4-3.2-7.2-4.4-11.2c-4-1.2-7.6-2.8-11.2-4.4
	c-2.4-1.199-3.2-4-2.2-6.399c1.2-2.4,4-3.2,6.4-2.2c1.4,0.6,2.6,1.2,4,1.8c-1-5-1.6-10.2-1.8-15.4h-10.2c-2.6,0-4.8-2.2-4.8-4.8
	s2.2-4.8,4.8-4.8H213c0.2-6,0.8-12,2-17.8c-1.4,0.6-2.8,1.2-4,1.8c-2.4,1.2-5.2,0.2-6.4-2.2c-1.2-2.4-0.2-5.2,2.2-6.4
	c3.4-1.8,7.2-3.2,11.2-4.4c1.2-4,2.8-7.6,4.4-11.2c1.2-2.4,4-3.2,6.4-2.2C230.8,63.8,231.8,66.6,230.6,69z M245.2,136v-21.8h-22.8
	c0.4,6.4,1.4,12.8,2.8,18.8C231.6,134.8,238.4,135.8,245.2,136z M277.6,114.2h-23V136c6.801-0.4,13.601-1.2,20-3
	C276.4,127,277.4,120.6,277.6,114.2z M254.8,80.6v24.2h23c-0.2-7.2-1.2-14.4-3-21.2C268.4,81.8,261.6,80.8,254.8,80.6z M225.2,83.6
	c-1.8,6.8-2.8,14-3,21.2h23V80.6C238.4,80.8,231.6,81.8,225.2,83.6z"/>
</svg>
