<?xml version="1.0" encoding="utf-8"?>
<!-- Generator: Adobe Illustrator 16.0.4, SVG Export Plug-In . SVG Version: 6.00 Build 0)  -->
<!DOCTYPE svg PUBLIC "-//W3C//DTD SVG 1.1//EN" "http://www.w3.org/Graphics/SVG/1.1/DTD/svg11.dtd">
<svg version="1.1" id="Layer_1" xmlns="http://www.w3.org/2000/svg" xmlns:xlink="http://www.w3.org/1999/xlink" x="0px" y="0px"
	 width="500px" height="250px" viewBox="0 0 500 250" enable-background="new 0 0 500 250" xml:space="preserve">
<path fill="#FFFFFF" d="M311.25,180c1.648,0,3.262,0.662,4.412,1.824c1.174,1.174,1.838,2.787,1.838,4.426
	c0,1.648-0.662,3.25-1.838,4.426c-1.162,1.162-2.773,1.824-4.412,1.824c-1.65,0-3.252-0.662-4.426-1.824
	c-1.162-1.164-1.824-2.777-1.824-4.426c0-1.65,0.662-3.252,1.824-4.426C307.988,180.662,309.6,180,311.25,180z M330,181.25
	c-2.762,0-5,2.238-5,5s2.238,5,5,5h31.25c2.762,0,5-2.238,5-5v-100c0-2.762-2.238-5-5-5h-162.5c-2.762,0-5,2.238-5,5v100
	c0,2.762,2.238,5,5,5H275v15h-26.25c-2.762,0-5,2.238-5,5s2.238,5,5,5h62.5c2.762,0,5-2.238,5-5s-2.238-5-5-5H285v-15h7.5
	c2.762,0,5-2.238,5-5s-2.238-5-5-5h-88.75v-90h152.5v90H330z"/>
</svg>
