<?xml version="1.0" encoding="utf-8"?>
<!-- Generator: Adobe Illustrator 16.0.4, SVG Export Plug-In . SVG Version: 6.00 Build 0)  -->
<!DOCTYPE svg PUBLIC "-//W3C//DTD SVG 1.1//EN" "http://www.w3.org/Graphics/SVG/1.1/DTD/svg11.dtd">
<svg version="1.1" id="Layer_1" xmlns="http://www.w3.org/2000/svg" xmlns:xlink="http://www.w3.org/1999/xlink" x="0px" y="0px"
	 width="500px" height="250px" viewBox="0 0 500 250" enable-background="new 0 0 500 250" xml:space="preserve">
<path fill="#FFFFFF" d="M294,56.2c1.2,1.2,2,2.8,2,4.6c0,1.8-0.6,3.4-2,4.6c-1.2,1.2-3,2-4.6,2c-1.801,0-3.4-0.6-4.601-2
	c-1.2-1.2-2-2.8-2-4.6c0-1.8,0.601-3.4,2-4.6c1.2-1.2,2.8-2,4.601-2C291,54.4,292.8,55,294,56.2z M297.8,43.2c-1.2,1.2-2,3-2,4.6
	c0,1.8,0.601,3.4,2,4.6c1.2,1.2,2.8,2,4.601,2c1.8,0,3.399-0.6,4.6-2c1.2-1.2,2-2.8,2-4.6c0-1.8-0.6-3.4-2-4.6c-1.2-1.2-2.8-2-4.6-2
	C300.6,41.4,299,42,297.8,43.2z M182.6,128l-13,6.6c-2.6,1.2-3.6,4.4-2.4,7c1,1.801,2.8,2.801,4.6,2.801c0.8,0,1.6-0.2,2.4-0.601
	l13-6.6c2.6-1.2,3.6-4.4,2.4-7C188.4,127.6,185.2,126.4,182.6,128z M338.6,51.6L275.2,115l6,36.4c0.2,1.399-0.2,3-1,4.199l-26,32.4
	c-1,1.2-2.601,2-4,2c-0.2,0-0.4,0-0.6,0c-1.8-0.2-3.4-1.4-4.2-3l-25.2-57l-57-25.2c-1.6-0.6-2.6-2.2-3-3.8c-0.4-1.6,0.2-3.4,1.4-4.6
	l26-26c1.2-1.2,2.8-1.8,4.4-1.4l43,6.2l63.4-63.6c1-1,2.399-1.6,3.6-1.6h32.6c2.801,0,5.2,2.4,5.2,5.2v32.6
	C340.2,49.2,339.6,50.4,338.6,51.6z M329.8,20.4h-25.2L241,84c-1.2,1.2-2.8,1.8-4.4,1.4l-43-6.2L174.8,98l26,11.6l7-7l0,0l6.6-6.6
	c2-2,5.4-2,7.4,0s2,5.4,0,7.4l-6.6,6.6l0,0l-4.2,4l15.6,7c1.2,0.6,2.2,1.4,2.6,2.6l7,15.6l4.2-4.2l0,0l6.6-6.6c2-2,5.4-2,7.4,0
	s2,5.399,0,7.399L247.8,142.4l0,0l-7,7l11.2,25l19.2-24L264.6,114c-0.199-1.6,0.2-3.4,1.4-4.6l63.6-63.6V20.4H329.8z M208.8,183
	c0.8,0.4,1.6,0.6,2.4,0.6c2,0,3.8-1,4.6-2.8l6.6-13c1.2-2.6,0.2-5.8-2.4-7s-5.8-0.2-7,2.4l-6.6,12.8
	C205.2,178.6,206.2,181.6,208.8,183z M200.8,142l-19.6,19.6c-2,2-2,5.4,0,7.4c1,1,2.4,1.6,3.6,1.6c1.4,0,2.6-0.6,3.6-1.6l19.6-19.6
	c2-2,2-5.4,0-7.4C206.2,140,202.8,140,200.8,142z"/>
</svg>
